<?xml version="1.0" encoding="UTF-8"?>
<!-- Generator: Adobe Illustrator 20.1.0, SVG Export Plug-In . SVG Version: 6.00 Build 0)  -->
<svg version="1.1" id="Layer_1" xmlns="http://www.w3.org/2000/svg" xmlns:xlink="http://www.w3.org/1999/xlink" x="0px" y="0px" width="867.8px" height="155px" viewBox="0 0 867.8 155" style="enable-background:new 0 0 867.8 155;" xml:space="preserve">
<style type="text/css">
	.st0{display:none;}
	.st1{fill:#5F6060;}
	.st2{fill:none;stroke:#5F6060;stroke-miterlimit:10;}
	.st3{fill:#5F6060;stroke:#5F6060;stroke-miterlimit:10;}
	.st4{fill:#FFFFFF;stroke:#FFFFFF;stroke-miterlimit:10;}
	.st5{fill:none;stroke:#5F6060;stroke-width:0.75;stroke-miterlimit:10;}
	.st6{fill:#5F6060;stroke:#5F6060;stroke-width:0.5;stroke-miterlimit:10;}
	.st7{fill:#FFFFFF;}
	.st8{fill:#FFFFFF;stroke:#FFFFFF;stroke-width:0.5;stroke-miterlimit:10;}
	.st9{fill:#FDFEFF;}
	.st10{fill:#323232;}
	.st11{fill:none;}
	.st12{fill:none;stroke:#FCFCFC;stroke-width:0.5;stroke-miterlimit:10;}
	.st13{fill:none;stroke:#FFFFFF;stroke-miterlimit:10;}
	.st14{fill:#4E4E4E;stroke:#4E4E4E;stroke-miterlimit:10;}
	.st15{fill:none;stroke:#FFFFFF;stroke-width:0.75;stroke-miterlimit:10;}
	.st16{fill:#4E4E4E;}
	.st17{fill:#5F6060;stroke:#FFFFFF;stroke-width:0.5;stroke-miterlimit:10;}
	.st18{fill:none;stroke:#4E4E4E;stroke-width:0.5;stroke-miterlimit:10;}
	.st19{fill:#DC1E31;}
	.st20{fill:#DB1F26;}
	.st21{fill:none;stroke:#676767;stroke-linecap:round;stroke-linejoin:round;stroke-miterlimit:3;}
	.st22{fill:none;stroke:#DB1F26;stroke-width:1.5;stroke-linecap:round;stroke-linejoin:round;stroke-miterlimit:3;}
	.st23{fill:#515659;}
	.st24{fill:#DB1F31;}
</style>
<g id="J0TeIA_1_" class="st0">
</g>
<g id="mwdpq9_1_">
</g>
<g id="Safety_2_">
	<path class="st1" d="M34.3,21.6c-0.1-0.1-0.3-0.3-0.7-0.4c-0.1-0.4-0.3-1.7-0.3-2.5c0,0-0.1-0.4-0.3-1s-0.6-2.5-1.1-3.2   c0,0-0.3-0.6-1-1.4c-0.1-0.1-0.2-0.2-0.3-0.3c-0.9-0.8-2.2-1.7-4.1-1.8c-3.7-0.2-5.8,1.2-5.8,1.2s-0.3,0.2-0.7,0.5   c-0.3,0.2-0.4,0.3-0.5,0.4c-0.7,0.6-1.5,1.5-2.1,2.7c-0.1,0.2-0.3,0.5-0.4,0.8c-0.5,1.1-0.5,3.9-0.5,4.1l0,0c0,0-0.2,0.1-1,0.6   c-0.6,0.3-1.4,1-1.3,1.3c0,0.1,0.1,0.1,0.2,0.1c0.7,0,2.6,0.4,2.6,0.4s0.5,0.2,1.6-0.1c1-0.2,4.7-1,4.8-1c0,0,0.5-0.1,1.1-0.2l0,0   c0,0,2.6-0.5,3.5-0.6c0.7,0.2,2.8,0.5,2.9,0.5c0,0,0.8,0.1,1.8,0.3c0.3,0,0.5,0,0.7,0l0,0c0,0,0.2,0.1,0.5,0.1c0.2,0,0.3,0,0.4-0.1   c0.1-0.1,0.2-0.2,0.3-0.3C34.3,21.8,34.3,21.7,34.3,21.6z"/>
	<path class="st1" d="M32.8,23.8c0-0.1-0.1-0.1-0.2-0.1l0,0c0,0,0.2-0.1,0.1-0.2c-0.2-0.2-0.2-0.2-0.6-0.3L32,21.9l-1.6-0.2   c0,0,0.9,0.7,1,1.9c0,0.2,0.1,0.4,0.1,0.6c-0.3-0.1-0.6-0.2-1-0.3c-1.2-0.4-3.7-1.4-4.2-1.9l0,0l0,0l0,0l0,0c0,0-0.3,0-0.6,0   c-0.2,0-0.3,0.1-0.4,0.1c-0.1,0.1-0.2,0.1-0.3,0.2c-0.1,0.1,0,0.2,0,0.3c0.1,0.2,0.3,0.4,0.6,0.6c0.3,0.2,0.6,0.4,1.1,0.7   c0.8,0.4,1.8,0.9,2.9,1.3c0.7,0.3,1.2,0.4,1.6,0.5c0.3,0.1,0.4,0,0.4,0l0,0l0.1,0.2l0,0l0,0l0,0l0,0H32l0,0V26l0,0l0,0   c0.3,0,0.4,0,0.5-0.1c0-0.1,0-0.2,0-0.2s0-0.2,0.1-0.3c0.1-0.1,0.2-1.4,0.2-1.5C32.8,23.9,32.8,23.9,32.8,23.8z"/>
</g>
<g id="Lightings_2_">
	<path class="st2" d="M71.8,25.5v1.9H71V28h-0.2h-0.5l-0.2,0.4c-0.1,0.3-0.4,0.5-0.8,0.5s-0.7-0.2-0.8-0.5L68.3,28h-0.5h-0.3v-0.6   h-0.7h-0.1v-1.9H71.8"/>
	<path class="st3" d="M69.2,12.2c-1.7,0-3.4,0.7-4.6,1.9c-2.6,2.5-2.6,6.1,0,8.6c1.2,1.1,1.7,2.3,1.9,3.1h5.2h0.1   c0.2-0.9,0.7-2,1.9-3.1c2.6-2.4,2.6-6.1,0-8.6C72.5,12.9,70.9,12.2,69.2,12.2L69.2,12.2z"/>
	<path class="st4" d="M70.9,18.7c-0.1-0.1-0.2-0.1-0.2,0l-1.6,1.5l-1.6-1.5c-0.1-0.1-0.2-0.1-0.2,0c-0.1,0.1-0.1,0.1,0,0.2l1.7,1.6   v2.1c0,0.1,0.1,0.1,0.2,0.1s0.2-0.1,0.2-0.1v-2.1l1.7-1.6C71,18.8,71,18.7,70.9,18.7z"/>
</g>
<g id="Power_tool_2_">
	<path class="st1" d="M126.1,17.9h-1.9l0,0c0-0.5-0.4-1-1-1h-0.6c-0.5-1-3.8-2.1-4.8-2.1c-1.1,0-8.2,0-8.2,0c-1.1,0-1.9,0.9-1.9,1.9   l-0.1,8.7c0,1.2,1,2.2,2.2,2.2h2.3c1.2,0,2.2-1,2.2-2.2v-2.9v-0.2c1.8,0,2.9,0,3.4,0c1.2,0,4.6-1.2,4.9-2.2h0.6c0.5,0,1-0.4,1-1   v-0.2h1.9c0.3,0,0.5-0.2,0.5-0.5C126.6,18.1,126.4,17.9,126.1,17.9z M112.6,25.1c0,0.5-0.4,0.8-0.8,0.8h-1.7   c-0.5,0-0.8-0.4-0.8-0.8v-4.6l0,0v-0.1l0,0v-0.1l0,0c0,0,0-0.1,0.1-0.1l0,0c0,0,0-0.1,0.1-0.1c0,0,0,0,0.1,0c0,0,0,0,0.1-0.1h0.1   c0,0,0,0,0.1,0h0.1c0,0,0,0,0.1,0s0.1,0,0.2,0h1.7c0.5,0,0.8,0.4,0.8,0.8v1.6L112.6,25.1L112.6,25.1z"/>
	<ellipse class="st2" cx="110.1" cy="22.5" rx="0.8" ry="1.1"/>
</g>
<g id="Cleaning_2_">
	<path class="st3" d="M154.9,21.1c0,0,3.4-3.4,7-0.8c0,0,2.6,2.5,0.2,6.1h5.1c0,0,2.3,0.2,2.5-2.7v-5.8c0,0,0.3-2.5-2.6-2.3h-9.7   c0,0-2.3-0.1-2.5,1.6V21.1L154.9,21.1z"/>
	<path class="st1" d="M158.7,20.3c1.8,0,3.3,1.5,3.3,3.3s-1.5,3.3-3.3,3.3s-3.3-1.5-3.3-3.3C155.4,21.7,156.9,20.3,158.7,20.3z"/>
	<path class="st5" d="M166.1,15.2c0,0,1.9-1.4-0.2-2.4c-2.1-1-2.6-3.7,1.3-3.4c3.9,0.2,6,2.1,6.7,7.6v9.6h-2.4h4.9"/>
</g>
<g id="Electricals_2_">
	<path class="st3" d="M208.1,15.8c-1.7,1.6-1.6,4.8,0,6.4l0.1,0.1l-2.1,2c1,1.1,1.7,1.8,2.5,2.6l2.1-2l0.3,0.3   c1.6,1.7,4.1,1.2,5.8-0.4l2.8-2.7l-8.6-9L208.1,15.8z"/>
	<path class="st6" d="M219.5,17.9l2.8-2.7c0.4-0.3,0.4-0.9,0-1.3c-0.3-0.4-0.9-0.4-1.3,0l-2.8,2.7l-1.8-2l2.8-2.7   c0.4-0.3,0.4-0.9,0-1.3c-0.3-0.4-0.9-0.4-1.3,0l-2.8,2.7l-2.1-2.2l-1.3,1.2l8.5,8.9l1.3-1.2L219.5,17.9z"/>
</g>
<g id="Measurement_2_">
	<circle class="st3" cx="261.4" cy="18.7" r="7.5"/>
	<path class="st7" d="M258.7,20.8c0.6-0.5,1.1-0.8,1.5-1.4c-0.3-0.8,0.3-1.6,1.1-1.5c1.2-1.6,2.4-3.3,3.6-4.9c0.2-0.1,0.2,0,0.2,0.2   l-2.9,5.4c0.3,0.7-0.1,1.5-0.9,1.6c-0.4,0.7-0.4,1.2-0.6,2C260.5,23.4,257.7,21.7,258.7,20.8L258.7,20.8z M261.6,18.6L261.6,18.6   c-0.6-0.4-1.1,0.5-0.6,0.9C261.6,19.8,262.2,18.9,261.6,18.6z"/>
</g>
<g id="Hammer_2_">
	<path class="st3" d="M324,16.9c-0.4-0.4-1.3-0.5-2-1.3s-0.2-1.4-1.2-2.3c-0.9-1-1.9-1.6-3.6-2.2s-5.8,0.2-5.8,0.2   c-0.8,0.2-0.6,0.8,0,0.8c0.4,0,2.5,0.1,2.5,0.1c2,0.1,2.3,0.6,2.7,1.3c0.3,0.7-0.4,2-0.4,2s0,0,0.1,0.1l-2.5,2.1   c-0.1-0.1-0.3-0.2-0.5-0.1c-0.4,0.2-1.4,0.8-2.1,1.3s-1.8,1.7-1.8,1.7s0,0-0.7,0.7s-1.8,1.5-2.6,1.9c-0.8,0.5-0.5,0.8-0.3,1.2   c0.3,0.4,0.9,1.1,1.5,1.6c0.5,0.5,1.1,0.6,1.4,0.1s1.8-1.9,2.2-2.3c0.4-0.4,2.1-1.5,2.7-2.1c0.6-0.5,1.2-1.5,1.6-1.9   c0.2-0.2,0.1-0.4,0-0.6l2.4-2.3l0,0l0,0l0,0c0.9-0.5,1.5-0.5,2-0.4c0.5,0.2,0.8,0.6,1,0.8c0.4,0.4,0.2,1.1,0.4,1.4   c0.3,0.3,0,0,0.5,0.5c0.1,0.1,0.2,0.2,0.3,0.2c0.4,0.2,0.7-0.2,0.7-0.2s1.2-1.1,1.6-1.4C324.7,17.8,324.4,17.3,324,16.9z"/>
</g>
<path class="st1" d="M423.4,24.8c-0.3-0.3-0.5-0.6-0.7-1c1.4-0.2,2.6-0.9,3.5-1.9c-0.4-0.1-0.7-0.3-1.1-0.5c1-0.9,1.8-2.1,2.1-3.4  c-0.4,0.1-0.8,0.1-1.2,0.1c0.5-1.3,0.5-2.7,0.1-4c-0.3,0.2-0.6,0.5-1,0.7c-0.2-1.4-0.9-2.6-1.9-3.5c-0.1,0.4-0.3,0.7-0.5,1.1  c-0.9-1.1-2.1-1.8-3.4-2.1c0.1,0.4,0.1,0.8,0.1,1.2c-1.3-0.5-2.7-0.5-4-0.1c0.2,0.3,0.5,0.6,0.7,1c-1.4,0.2-2.6,0.9-3.5,1.9  c0.4,0.1,0.7,0.3,1.1,0.5c-1.1,0.9-1.8,2-2.1,3.4c0.4-0.1,0.8-0.1,1.2-0.1c-0.5,1.3-0.6,2.7-0.2,4c0.3-0.3,0.6-0.5,1-0.7  c0.2,1.4,0.9,2.6,1.9,3.5c0.1-0.4,0.3-0.7,0.5-1.1c0.4,0.5,0.8,0.8,1.3,1.2h-5.1v1.3h15V25h-4.1C423.3,24.9,423.4,24.9,423.4,24.8z   M419.6,16.6c0.9,0,1.5,0.7,1.5,1.5c0,0.9-0.7,1.5-1.5,1.5s-1.5-0.7-1.5-1.5C418,17.3,418.7,16.6,419.6,16.6z M416.6,24.9h6.6"/>
<g id="Abrasives_2_">
	<path class="st1" d="M473.5,20.4c0.9,0.1,1.8-1,1.8-1.8c-0.2,0.3-0.3,0.5-0.7,0.6c-0.2,0.1-0.8,0-0.9-0.2h0.1   c0.3-0.2,0.7-0.6,0.9-0.8c0.3-0.3,0.4-0.9,0.4-1.4c-0.3,0.2-0.8,0.7-1.2,0.4c0.5-0.8,0.1-1.7,0-2.5c-0.1,0.4-0.4,0.7-0.8,0.8   c0.3-0.8,0.2-2-0.5-2.5c-0.1,0.4-0.3,0.9-0.7,1c0.2-0.9-0.3-2.1-1.4-2.3c0.1,0.2,0.1,0.7,0,1c-0.1-0.1-0.2-0.4-0.3-0.6   c-0.1-0.2-0.3-0.4-0.6-0.6c-0.4-0.3-1-0.7-1.5-0.7c0.3,0.2,0.5,0.7,0.4,1.1c-0.5-0.5-1.3-1.3-2.1-1.1c0.3,0.2,0.4,0.6,0.4,1   c-0.4-0.7-1.6-1-2.3-0.6c0.4,0,0.8,0.5,0.7,0.8c-0.9-0.4-1.8-0.7-2.7,0c0.4,0.2,1,0.2,0.9,0.8c-0.8-0.5-2-0.2-2.5,0.6   c0.7,0,0.9,0.1,1.2,0.7c-0.4-0.1-0.9-0.3-1.4-0.1s-0.8,0.7-1.2,1c0.4,0,1.4,0.1,1.4,0.7c-0.5,0-0.8,0.1-1.3,0.4   c-0.5,0.3-0.6,0.7-0.9,1.2c0.5-0.2,1.5-0.5,1.8,0.1c-0.9-0.1-1.8,1.1-1.8,2c0.2-0.3,0.3-0.5,0.6-0.6c0.2,0,0.5,0,0.7,0   c-0.3,0.2-0.6,0.4-0.8,0.6c-0.3,0.3-0.4,0.9-0.4,1.3c0.3-0.2,0.8-0.7,1.2-0.3c-0.5,0.7-0.2,1.6-0.1,2.4c0.1-0.4,0.4-0.7,0.8-0.8   c-0.3,0.8-0.2,1.9,0.5,2.4c0.1-0.4,0.3-0.8,0.7-1c-0.2,0.9,0.3,2.1,1.3,2.2c-0.1-0.2-0.1-0.7,0-0.9c0.1,0.1,0.2,0.4,0.3,0.6   c0.1,0.2,0.3,0.4,0.5,0.6c0.4,0.3,1,0.7,1.5,0.7c-0.3-0.2-0.5-0.7-0.3-1.1c0.5,0.5,1.3,1.2,2.1,1.1c-0.3-0.2-0.4-0.6-0.4-1   c0.4,0.7,1.5,1,2.3,0.7c-0.3,0-0.7-0.5-0.7-0.8c0.9,0.4,1.8,0.7,2.6,0.1c-0.4-0.2-1-0.2-0.9-0.8c0.7,0.5,2,0.2,2.5-0.5   c-0.7,0-0.9-0.1-1.1-0.7c0.4,0.1,0.9,0.3,1.4,0.1c0.5-0.1,0.8-0.6,1.2-0.9c-0.4,0-1.4-0.1-1.4-0.7c0.5,0,0.8-0.1,1.3-0.3   c0.5-0.3,0.7-0.6,1-1.1C474.8,20.7,473.8,21,473.5,20.4z"/>
	<circle class="st8" cx="467" cy="18.6" r="1.9"/>
</g>
<g id="xUbRPi_2_">
	<g>
		<g id="XMLID_9_">
			<g>
				<path class="st1" d="M570.7,20.9c0,0.4,0,0.8,0,1.1c0,0.5-0.1,0.9-0.5,1.2c-0.2,0.2-0.5,0.3-0.8,0.4c-0.1,0-0.3,0-0.4,0      c-0.5,0-1.1,0-1.6,0h-0.1c0-3.3,0-6.6,0-9.9h0.1c0.6,0,1.2,0,1.8,0s1.1,0.3,1.4,0.9c0.1,0.2,0.2,0.5,0.2,0.8      C570.7,17.2,570.7,19.1,570.7,20.9z"/>
				<path class="st1" d="M567.1,25.1c0,0.1,0,0.2,0,0.4c-3.9,0-7.7,0-11.6,0c0-0.1,0-0.3,0-0.4c0-0.2,0.2-0.3,0.4-0.3s0.5,0,0.7,0      c0-0.2,0-0.4,0-0.6c3.1,0,6.3,0,9.4,0c0,0.2,0,0.4,0,0.6c0.2,0,0.4,0,0.6,0C566.9,24.7,567.1,24.8,567.1,25.1z"/>
				<path class="st1" d="M566.9,13.8c0,3.3,0,6.5,0,9.8c-3.8,0-7.5,0-11.3,0c0-3.3,0-6.5,0-9.8C559.3,13.8,563.1,13.8,566.9,13.8z"/>
				<path class="st1" d="M564.3,10.9c0,0.1,0,0.2,0,0.3h-0.1c0,0.7,0,1.4,0,2.1c-2,0-3.9,0-5.9,0c0-0.7,0-1.4,0-2.1h-0.1      c0-0.1,0-0.2,0-0.4C560.2,10.9,562.2,10.9,564.3,10.9z"/>
				<path class="st1" d="M555.1,13.8c0,3.3,0,6.5,0,9.8c-0.4,0-0.8,0-1.2,0c-0.2,0-0.4-0.2-0.4-0.5c0-0.4,0-0.9,0-1.4      c0-2.2,0-4.5,0-6.7c0-0.3,0-0.6,0-0.9c0-0.2,0.1-0.3,0.3-0.4c0,0,0,0,0.1,0C554.3,13.8,554.7,13.8,555.1,13.8z"/>
				<path class="st1" d="M553.1,15.7c0,2,0,4,0,6c-0.1,0-0.3,0-0.4,0c-0.1,0-0.2-0.1-0.2-0.3c0-1.3,0-2.6,0-3.9c0-0.5,0-1,0-1.5      c0-0.2,0.1-0.3,0.3-0.3C552.8,15.7,553,15.7,553.1,15.7L553.1,15.7z"/>
				<path class="st1" d="M552,17.8c0,0.6,0,1.2,0,1.8c-0.2,0-0.3,0-0.5,0l-0.1-0.1l0,0h-0.1c-0.6,0-1.2,0-1.9,0      c-0.1,0-0.1,0-0.1-0.1c0-0.4,0-0.8,0-1.1c0-0.1,0-0.1,0.1-0.1c0.6,0,1.2,0,1.9,0h0.1c0-0.1,0-0.2,0.2-0.2      C551.7,17.8,551.9,17.8,552,17.8z"/>
			</g>
		</g>
		<path class="st7" d="M561.2,16.1c1.4,0,2.8,0,4.3,0c0.1,0,0.1,0,0.1,0.2c0,0.3,0,0.3-0.3,0.3c-1.9,0-3.8,0-5.7,0    c-0.9,0-1.8,0-2.7,0c-0.2,0-0.2,0-0.2-0.2c0-0.3,0-0.3,0.3-0.3C558.5,16.1,559.8,16.1,561.2,16.1z"/>
		<path class="st7" d="M561.2,21.7c-1.4,0-2.8,0-4.3,0c-0.1,0-0.1,0-0.1-0.1c0-0.3,0-0.3,0.3-0.3c2.8,0,5.6,0,8.3,0    c0.2,0,0.2,0,0.2,0.2c0,0.3,0,0.3-0.3,0.3C564,21.7,562.6,21.7,561.2,21.7L561.2,21.7z"/>
		<path class="st7" d="M556.8,19.1c0-0.1,0-0.2,0-0.3c0-0.1,0-0.1,0.1-0.1c0.3,0,0.5,0,0.8,0c2.6,0,5.2,0,7.7,0c0.2,0,0.2,0,0.2,0.2    c0,0.1,0,0.1,0,0.2c0,0,0,0-0.1,0h-0.1c-2.7,0-5.4,0-8.1,0C557.2,19.1,557,19.1,556.8,19.1z"/>
		<path class="st7" d="M562,12.2c0,0.4-0.4,0.8-0.8,0.8c-0.4,0-0.8-0.3-0.8-0.8s0.3-0.8,0.8-0.8S562,11.7,562,12.2z M561.2,12.7    c0.3,0,0.5-0.2,0.5-0.4c0-0.3-0.2-0.5-0.5-0.5s-0.5,0.2-0.5,0.5C560.7,12.4,561,12.7,561.2,12.7z"/>
	</g>
</g>
<g>
	<g>
		<path class="st1" d="M619.5,23.6l-8.3-9.1l-1.5,1.4c-0.3,0.3-0.3,0.7-0.1,1l2.3,2.6c0.2,0.3,0.3,0.6,0.2,0.9s-0.3,0.6-0.6,0.7    c-0.5,0.2-0.9,0.4-1.3,0.8l-1.9,1.7c-0.6,0.5-0.6,1.4-0.1,1.9c0.5,0.6,1.4,0.6,1.9,0.1l1.9-1.7c0.4-0.3,0.7-0.7,0.9-1.2    c0.1-0.3,0.4-0.5,0.8-0.6c0.3,0,0.7,0.1,0.9,0.3l2.3,2.6c0.3,0.3,0.7,0.3,1,0L619.5,23.6z"/>
	</g>
	<g>
		<g id="XMLID_8_">
			<g>
				<path class="st1" d="M624.1,19c0.1,0.1,0.1,0.4,0,0.5l-4.1,3.7c-0.1,0.1-0.4,0.1-0.5,0l-7.8-8.6c-0.1-0.1-0.1-0.4,0-0.5l4.1-3.7      c0.1-0.1,0.4-0.1,0.5,0l5.8,6.3c0.1,0.1,0.1,0.2,0.1,0.3c0,0.1,0,0.2-0.1,0.2l-1,0.9l1.6-0.4c0.1,0,0.3,0,0.3,0.1L624.1,19z"/>
			</g>
		</g>
	</g>
	<g>
		<path class="st9" d="M617.2,11.4c0.1,0.1,0.1,0.4,0,0.5l-2.5,2.3c-0.1,0.1-0.4,0.1-0.5,0s-0.1-0.4,0-0.5l2.5-2.3    C616.9,11.3,617.1,11.3,617.2,11.4z"/>
	</g>
	<g>
		<path class="st9" d="M618.2,12.4c0.1,0.1,0.1,0.4,0,0.5l-2,1.8c-0.1,0.1-0.4,0.1-0.5,0s-0.1-0.4,0-0.5l2-1.8    C617.8,12.3,618,12.3,618.2,12.4z"/>
	</g>
	<g>
		<path class="st9" d="M619.1,13.4c0.1,0.1,0.1,0.4,0,0.5l-1.3,1.1c-0.1,0.1-0.4,0.1-0.5,0s-0.1-0.4,0-0.5l1.3-1.1    C618.7,13.3,619,13.3,619.1,13.4z"/>
	</g>
	<g>
		<circle class="st10" cx="609.3" cy="24.5" r="0.7"/>
	</g>
</g>
<g id="XMLID_6_">
	<g>
		<polygon class="st1" points="666.7,14.1 666.7,23 659.5,26.5 659.5,17.2   "/>
	</g>
</g>
<g id="XMLID_5_">
	<g>
		<polygon class="st1" points="666.4,13.6 659.3,16.8 652.1,13.7 659.4,10.5   "/>
	</g>
</g>
<g>
	<g>
		<circle class="st11" cx="703.1" cy="18.8" r="4.8"/>
		<path class="st1" d="M703.1,10l-7.6,4.4v8.8l7.6,4.4l7.6-4.4v-8.8L703.1,10z M703.1,23.6c-2.7,0-4.8-2.2-4.8-4.8    c0-2.7,2.2-4.8,4.8-4.8c2.7,0,4.8,2.2,4.8,4.8C708,21.5,705.8,23.6,703.1,23.6z"/>
	</g>
</g>
<g id="XMLID_4_">
	<g>
		<path class="st1" d="M742.3,21.2c0.1-0.3,0.1-0.7,0.2-1c0.2-0.1,0.5-0.2,0.8-0.4C743.5,21,743.2,21.3,742.3,21.2z"/>
		<path class="st1" d="M750.4,27.2c0.1-0.2-0.2-0.6,0.4-0.6c0-1.9,0-3.7,0-5.6c-0.6,0.1-0.3-0.3-0.4-0.6c0.6-0.1,1.1-0.1,1.7-0.2    c0,2.4,0,4.7,0,7.2C751.6,27.2,751,27.2,750.4,27.2z"/>
		<path class="st1" d="M740.6,20.1c0.6,0.1,1.1,0.1,1.7,0.2c-0.1,0.3,0.2,0.6-0.4,0.6c0,1.9,0,3.7,0,5.6c0.6,0,0.4,0.3,0.4,0.6    c-0.6,0-1.1,0.1-1.7,0.1C740.6,24.9,740.6,22.6,740.6,20.1z"/>
		<path class="st1" d="M750.7,18.2c0,0.2,0,0.4-0.1,0.6c-2.8,0-5.6,0-8.5,0c0-0.2,0-0.4,0-0.6C745,18.2,747.8,18.2,750.7,18.2z"/>
		<path class="st1" d="M749.2,19.6c0.2,0.6-0.2,1.2,0.5,1.8c-2.1,0-4.3,0-6.5,0c0.7-0.5,0.3-1.2,0.5-1.8    C745.5,19.6,747.3,19.6,749.2,19.6z"/>
		<path class="st1" d="M750.7,19.4c-2.9,0-5.7,0-8.6,0c-0.1-0.3,0-0.4,0.4-0.4c2.7,0,5.3,0,8,0c0,0,0.1,0,0.2,0    C750.7,19.1,750.7,19.3,750.7,19.4z"/>
		<path class="st1" d="M750.6,21.6c0,1.4,0,2.8,0,4.2c-2.8,0-5.7,0-8.5,0c0-1.4,0-2.8,0-4.2C745,21.6,747.8,21.6,750.6,21.6z"/>
		<path class="st1" d="M743.6,26c1.9,0,3.6,0,5.4,0C748.2,26.9,745.1,27,743.6,26z"/>
		<path class="st1" d="M750.3,20.2c0,0.3-0.2,0.7,0.3,0.9c-1,0.2-1.3-0.2-1.1-1.3C749.7,20,750,20.1,750.3,20.2z"/>
	</g>
</g>
<g id="XMLID_3_">
	<g>
		<path class="st1" d="M747.6,10.8c0.2,0,0.5,0,0.7,0s0.3,0,0.5,0s0.5,0,0.5,0.1c0.1,0.1,0.1,0.4,0,0.5c0,0.1-0.3,0.1-0.5,0.1    c-0.6,0-1.2,0-1.9,0l0,0c0,0.2,0,0.5,0,0.8c1-0.2,1,0.4,1.1,1.1c0.3,1.2,0.6,2.4,0.9,3.6c0.1,0.4,0.3,0.7,0.5,1.1    c-2.1,0-4.2,0-6.3,0c0-0.1,0-0.2,0-0.2c0.8-1.2,0.9-2.6,1.3-3.9c0.1-0.3,0.2-0.7,0.2-1c0.1-0.4,0.3-0.7,0.8-0.6c0.1,0,0.1,0,0.3,0    c0-0.3,0-0.3,0-0.7l0,0c-0.6,0-1.2,0-1.8,0c-0.2,0-0.5,0-0.6-0.1s-0.1-0.4,0-0.5s0.4-0.1,0.6-0.1c0.6,0,1.3,0,1.9,0    c0.1,0,0.2-0.2,0.2-0.4c0-0.4,0-0.8,0-1.2c0-0.1,0.1-0.2,0.2-0.3c0.1,0.1,0.2,0.2,0.2,0.3c0,0.4,0,0.7,0,1.1    C746.6,10.7,747,10.8,747.6,10.8z"/>
	</g>
</g>
<g id="x5rDpN_2_">
	<g>
		<path class="st1" d="M780.7,16c0-0.5,0-1,0-1.5c0.2-0.1,0.3-0.2,0.5-0.2c0.3,0,0.4-0.1,0.4-0.4c0.4-2.4,2.5-4.1,5-4.2    c2.4,0,4.6,1.6,5.1,4c0.1,0.4,0.1,0.7,0.6,0.6c0.1,0,0.2,0.1,0.3,0.2c0,0.5,0,1,0,1.5c-0.2,0.1-0.5,0.3-0.8,0.4c0,1.4,0,3,0,4.5    c0,2.9-1.6,4.7-4,6.1c-0.6,0.3-1.3,0.4-2,0.1c-2-0.6-4.4-3.3-4.4-5.8c0-1.5,0-3,0-4.5c0-0.2,0-0.3,0-0.5l-0.1,0.1    C781.1,16.2,780.9,16.1,780.7,16z M790.3,14.3c-2.4,0-4.8,0-7.2,0c0,1.3,0,2.5,0,3.8c2.4,0,4.8,0,7.2,0    C790.3,16.8,790.3,15.5,790.3,14.3z M781,14.5c0,0.5,0,1,0,1.6c0.2,0,0.3,0,0.4,0c0-0.5,0-1,0-1.5C781.3,14.5,781.1,14.5,781,14.5    z M791.9,14.5c0,0.5,0,1,0,1.6c0.2,0,0.3,0,0.4,0c0-0.5,0-1,0-1.5C792.2,14.5,792,14.5,791.9,14.5z"/>
	</g>
</g>
<g id="XMLID_7_">
	<g>
		<polygon class="st1" points="651.8,14 659.1,17.2 659.1,26.5 651.8,23.3   "/>
	</g>
</g>
<line class="st12" x1="653.3" y1="20.8" x2="657.2" y2="22.4"/>
<line class="st12" x1="653.3" y1="18.2" x2="657.2" y2="19.8"/>
<g id="Safety_1_">
	<path class="st7" d="M34.3,52.2c-0.1-0.1-0.3-0.3-0.7-0.4c-0.1-0.4-0.3-1.7-0.3-2.5c0,0-0.1-0.4-0.3-1s-0.6-2.5-1.1-3.2   c0,0-0.3-0.6-1-1.4c-0.1-0.1-0.2-0.2-0.3-0.3c-0.9-0.8-2.2-1.6-4.1-1.8c-3.7-0.2-5.8,1.2-5.8,1.2S20.4,43,20,43.3   c-0.3,0.2-0.4,0.3-0.5,0.4c-0.7,0.6-1.5,1.5-2.1,2.7c-0.1,0.2-0.3,0.5-0.4,0.8c-0.5,1.1-0.5,3.9-0.5,4.1l0,0c0,0-0.2,0.1-1,0.6   c-0.6,0.4-1.4,1-1.3,1.3c0,0.1,0.1,0.1,0.2,0.1c0.7,0,2.6,0.4,2.6,0.4s0.5,0.2,1.6-0.1c1-0.2,4.7-1,4.8-1c0,0,0.5-0.1,1.1-0.2l0,0   c0,0,2.6-0.5,3.5-0.6c0.7,0.2,2.8,0.5,2.9,0.5c0,0,0.8,0.1,1.8,0.3c0.3,0,0.5,0.1,0.7,0.1l0,0c0,0,0.2,0.1,0.5,0.1   c0.2,0,0.3,0,0.4-0.1c0.1-0.1,0.2-0.2,0.3-0.3C34.3,52.3,34.3,52.3,34.3,52.2z"/>
	<path class="st7" d="M32.8,54.4c0-0.1-0.1-0.1-0.2-0.1l0,0c0,0,0.2-0.1,0.1-0.2c-0.2-0.2-0.2-0.2-0.6-0.3L32,52.5l-1.6-0.2   c0,0,0.9,0.7,1,1.9c0,0.2,0.1,0.4,0.1,0.6c-0.3-0.1-0.6-0.2-1-0.3c-1.2-0.4-3.7-1.4-4.2-1.9l0,0l0,0l0,0l0,0c0,0-0.3,0-0.6,0   c-0.2,0-0.3,0.1-0.4,0.1c-0.1,0.1-0.2,0.1-0.3,0.2c-0.1,0.1,0,0.2,0,0.3c0.1,0.2,0.3,0.4,0.6,0.6c0.3,0.2,0.6,0.4,1.1,0.7   c0.8,0.4,1.8,0.9,2.9,1.3c0.7,0.3,1.2,0.4,1.6,0.5c0.3,0.1,0.4,0,0.4,0l0,0l0.1,0.2l0,0l0,0l0,0l0,0H32l0,0v0.1l0,0l0,0   c0.3,0,0.4,0,0.5-0.1c0-0.1,0-0.2,0-0.2s0-0.2,0.1-0.3S32.8,54.6,32.8,54.4C32.8,54.5,32.8,54.4,32.8,54.4z"/>
</g>
<g id="Lightings_1_">
	<path class="st13" d="M71.8,57.1V59H71v0.6h-0.2h-0.5L70.1,60c-0.1,0.3-0.4,0.5-0.8,0.5s-0.7-0.2-0.8-0.5l-0.2-0.4h-0.5h-0.3V59   h-0.7h-0.1v-1.9H71.8"/>
	<path class="st4" d="M69.2,43.8c-1.7,0-3.4,0.7-4.6,1.9c-2.6,2.5-2.6,6.1,0,8.6c1.2,1.1,1.7,2.3,1.9,3.1h5.2h0.1   c0.2-0.9,0.7-2,1.9-3.1c2.6-2.4,2.6-6.1,0-8.6C72.5,44.4,70.9,43.8,69.2,43.8L69.2,43.8z"/>
	<path class="st14" d="M70.9,50.2c-0.1-0.1-0.2-0.1-0.2,0l-1.6,1.5l-1.6-1.5c-0.1-0.1-0.2-0.1-0.2,0c-0.1,0.1-0.1,0.1,0,0.2L69,52   v2.1c0,0.1,0.1,0.1,0.2,0.1s0.2-0.1,0.2-0.1V52l1.7-1.6C71,50.4,71,50.3,70.9,50.2z"/>
</g>
<g id="Power_tool_1_">
	<path class="st7" d="M126.1,46h-1.9l0,0c0-0.5-0.4-1-1-1h-0.6c-0.5-1-3.8-2.1-4.8-2.1c-1.1,0-8.2,0-8.2,0c-1.1,0-1.9,0.9-1.9,1.9   l-0.1,8.7c0,1.2,1,2.2,2.2,2.2h2.3c1.2,0,2.2-1,2.2-2.2v-2.9v-0.2c1.8,0,2.9,0,3.4,0c1.2,0,4.6-1.1,4.9-2.2h0.6c0.5,0,1-0.4,1-1V47   h1.9c0.3,0,0.5-0.2,0.5-0.5S126.4,46,126.1,46z M112.6,53.2c0,0.5-0.4,0.8-0.8,0.8h-1.7c-0.5,0-0.8-0.4-0.8-0.8v-4.6l0,0v-0.1l0,0   v-0.1l0,0c0,0,0-0.1,0.1-0.1l0,0c0,0,0-0.1,0.1-0.1c0,0,0,0,0.1-0.1c0,0,0,0,0.1-0.1h0.1c0,0,0,0,0.1,0h0.1c0,0,0,0,0.1,0   s0.1,0,0.2,0h1.7c0.5,0,0.8,0.4,0.8,0.8v1.6L112.6,53.2L112.6,53.2z"/>
	<ellipse class="st13" cx="110.1" cy="50.5" rx="0.8" ry="1.1"/>
</g>
<g id="Cleaning_1_">
	<path class="st4" d="M154.9,51.6c0,0,3.4-3.4,7-0.8c0,0,2.6,2.5,0.2,6.1h5.1c0,0,2.3,0.2,2.5-2.7v-5.8c0,0,0.3-2.5-2.6-2.3h-9.7   c0,0-2.3-0.1-2.5,1.6V51.6L154.9,51.6z"/>
	<path class="st7" d="M158.7,50.8c1.8,0,3.3,1.5,3.3,3.3s-1.5,3.3-3.3,3.3s-3.3-1.5-3.3-3.3S156.9,50.8,158.7,50.8z"/>
	<path class="st15" d="M166.1,45.8c0,0,1.9-1.4-0.2-2.4c-2.1-1-2.6-3.7,1.3-3.4s6,2.1,6.7,7.6v9.6h-2.4h4.9"/>
</g>
<g id="Electricals_1_">
	<path class="st4" d="M208.1,46.4c-1.7,1.6-1.6,4.7,0,6.4l0.1,0.1l-2.1,2c1,1.1,1.7,1.8,2.5,2.6l2.1-2l0.3,0.3   c1.6,1.7,4.1,1.2,5.8-0.4l2.8-2.7l-8.6-9L208.1,46.4z"/>
	<path class="st8" d="M219.5,48.5l2.8-2.7c0.4-0.3,0.4-0.9,0-1.3c-0.3-0.4-0.9-0.4-1.3,0l-2.8,2.7l-1.8-2l2.8-2.7   c0.4-0.3,0.4-0.9,0-1.3c-0.3-0.4-0.9-0.4-1.3,0l-2.8,2.7l-2.1-2.2l-1.3,1.2l8.5,8.9l1.3-1.2L219.5,48.5z"/>
</g>
<g id="Measurement_1_">
	<circle class="st4" cx="261.4" cy="49.3" r="7.5"/>
	<path class="st16" d="M258.7,51.4c0.6-0.5,1.1-0.8,1.5-1.4c-0.3-0.8,0.3-1.6,1.1-1.5c1.2-1.6,2.4-3.3,3.6-4.9   c0.2-0.1,0.2,0,0.2,0.2l-2.9,5.4c0.3,0.7-0.1,1.5-0.9,1.6c-0.4,0.7-0.4,1.2-0.6,2C260.5,54,257.7,52.3,258.7,51.4L258.7,51.4z    M261.6,49.1L261.6,49.1c-0.6-0.4-1.1,0.5-0.6,0.9C261.6,50.4,262.2,49.5,261.6,49.1z"/>
</g>
<g id="Hammer_1_">
	<path class="st4" d="M324,47.5c-0.4-0.4-1.3-0.5-2-1.3s-0.2-1.4-1.2-2.3c-0.9-1-1.9-1.6-3.6-2.2s-5.8,0.2-5.8,0.2   c-0.8,0.2-0.6,0.8,0,0.8c0.4,0,2.5,0.1,2.5,0.1c2,0.1,2.3,0.6,2.7,1.3c0.3,0.7-0.4,2-0.4,2s0,0,0.1,0.1l-2.5,2.1   c-0.1-0.1-0.3-0.2-0.5-0.1c-0.4,0.2-1.4,0.8-2.1,1.3s-1.8,1.7-1.8,1.7s0,0-0.7,0.7s-1.8,1.5-2.6,1.9c-0.8,0.5-0.5,0.8-0.3,1.2   c0.3,0.4,0.9,1.1,1.5,1.6s1.1,0.6,1.4,0.1s1.8-1.9,2.2-2.3c0.4-0.4,2.1-1.5,2.7-2.1c0.6-0.5,1.2-1.5,1.6-1.9c0.2-0.2,0.1-0.4,0-0.6   l2.4-2.3l0,0l0,0l0,0c0.9-0.5,1.5-0.5,2-0.4c0.5,0.2,0.8,0.6,1,0.8c0.4,0.4,0.2,1.1,0.4,1.4c0.3,0.3,0,0,0.5,0.5   c0.1,0.1,0.2,0.2,0.3,0.2c0.4,0.2,0.7-0.2,0.7-0.2s1.2-1.1,1.6-1.4C324.7,48.4,324.4,47.9,324,47.5z"/>
</g>
<path class="st7" d="M423.4,55.4c-0.3-0.3-0.5-0.6-0.7-1c1.4-0.2,2.6-0.9,3.5-1.9c-0.4-0.1-0.7-0.3-1.1-0.5c1-0.9,1.8-2.1,2.1-3.4  c-0.4,0.1-0.8,0.1-1.2,0.1c0.5-1.3,0.5-2.7,0.1-4c-0.3,0.2-0.6,0.5-1,0.7c-0.2-1.4-0.9-2.6-1.9-3.5c-0.1,0.4-0.3,0.7-0.5,1.1  c-0.9-1.1-2.1-1.8-3.4-2.1c0.1,0.4,0.1,0.8,0.1,1.2c-1.3-0.5-2.7-0.5-4-0.1c0.2,0.3,0.5,0.6,0.7,1c-1.4,0.2-2.6,0.9-3.5,1.9  c0.4,0.1,0.7,0.3,1.1,0.5c-1.1,0.9-1.8,2.1-2.1,3.4c0.4-0.1,0.8-0.1,1.2-0.1c-0.5,1.3-0.6,2.7-0.2,4c0.3-0.2,0.6-0.5,1-0.7  c0.2,1.4,0.9,2.6,1.9,3.5c0.1-0.4,0.3-0.7,0.5-1.1c0.4,0.4,0.8,0.8,1.3,1.2h-5.1v1.3h15v-1.3h-4.1C423.3,55.4,423.4,55.4,423.4,55.4  z M419.6,47.2c0.9,0,1.5,0.7,1.5,1.5s-0.7,1.5-1.5,1.5s-1.5-0.7-1.5-1.5C418,47.9,418.7,47.2,419.6,47.2z M416.6,55.5h6.6"/>
<g id="Abrasives_1_">
	<path class="st7" d="M473.5,51c0.9,0.1,1.8-1,1.8-1.8c-0.2,0.3-0.3,0.5-0.7,0.6c-0.2,0.1-0.8,0-0.9-0.2h0.1   c0.3-0.2,0.7-0.6,0.9-0.8c0.3-0.3,0.4-0.9,0.4-1.4c-0.3,0.2-0.8,0.7-1.2,0.4c0.5-0.8,0.1-1.7,0-2.5c-0.1,0.4-0.4,0.7-0.8,0.8   c0.3-0.8,0.2-2-0.5-2.5c-0.1,0.4-0.3,0.9-0.7,1c0.2-0.9-0.3-2.1-1.4-2.3c0.1,0.2,0.1,0.7,0,1c-0.1-0.1-0.2-0.4-0.3-0.6   c-0.1-0.2-0.3-0.4-0.6-0.6c-0.4-0.3-1-0.7-1.5-0.7c0.3,0.2,0.5,0.7,0.4,1.1c-0.5-0.5-1.3-1.3-2.1-1.1c0.3,0.2,0.4,0.6,0.4,1   c-0.4-0.7-1.6-1-2.3-0.6c0.4,0,0.8,0.5,0.7,0.8c-0.9-0.4-1.8-0.7-2.7,0c0.4,0.2,1,0.2,0.9,0.8c-0.8-0.5-2-0.2-2.5,0.6   c0.7,0,0.9,0.1,1.2,0.7c-0.4-0.1-0.9-0.3-1.4-0.1s-0.8,0.7-1.2,1c0.4,0,1.4,0.1,1.4,0.7c-0.5,0-0.8,0.1-1.3,0.4   c-0.5,0.3-0.6,0.7-0.9,1.2c0.5-0.2,1.5-0.5,1.8,0.1c-0.9-0.1-1.8,1.1-1.8,2c0.2-0.3,0.3-0.5,0.6-0.6c0.2,0,0.5-0.1,0.7,0   c-0.3,0.2-0.6,0.4-0.8,0.6c-0.3,0.3-0.4,0.9-0.4,1.3c0.3-0.2,0.8-0.7,1.2-0.3c-0.5,0.7-0.2,1.6-0.1,2.4c0.1-0.4,0.4-0.7,0.8-0.8   c-0.3,0.8-0.2,1.9,0.5,2.4c0.1-0.4,0.3-0.8,0.7-1c-0.2,0.9,0.3,2.1,1.3,2.2c-0.1-0.2-0.1-0.7,0-0.9c0.1,0.1,0.2,0.4,0.3,0.6   c0.1,0.2,0.3,0.4,0.5,0.6c0.4,0.3,1,0.7,1.5,0.7c-0.3-0.2-0.5-0.7-0.3-1.1c0.5,0.5,1.3,1.2,2.1,1.1c-0.3-0.2-0.4-0.6-0.4-1   c0.4,0.7,1.5,1,2.3,0.7c-0.3,0-0.7-0.5-0.7-0.8c0.9,0.4,1.8,0.7,2.6,0.1c-0.4-0.2-1-0.2-0.9-0.8c0.7,0.4,2,0.2,2.5-0.5   c-0.7,0-0.9-0.1-1.1-0.7c0.4,0.1,0.9,0.3,1.4,0.1c0.5-0.1,0.8-0.6,1.2-0.9c-0.4,0-1.4-0.1-1.4-0.7c0.5,0,0.8-0.1,1.3-0.3   c0.5-0.3,0.7-0.6,1-1.1C474.8,51.2,473.8,51.6,473.5,51z"/>
	<circle class="st17" cx="467" cy="49.2" r="1.9"/>
</g>
<g id="xUbRPi_1_">
	<g>
		<g id="XMLID_18_">
			<g>
				<path class="st7" d="M570.7,51.4c0,0.4,0,0.8,0,1.1c0,0.5-0.1,0.9-0.5,1.2c-0.2,0.2-0.5,0.3-0.8,0.4c-0.1,0-0.3,0-0.4,0      c-0.5,0-1.1,0-1.6,0h-0.1c0-3.3,0-6.6,0-9.9h0.1c0.6,0,1.2,0,1.8,0s1.1,0.3,1.4,0.9c0.1,0.2,0.2,0.5,0.2,0.8      C570.7,47.8,570.7,49.6,570.7,51.4z"/>
				<path class="st7" d="M567.1,55.7c0,0.1,0,0.2,0,0.4c-3.9,0-7.7,0-11.6,0c0-0.1,0-0.3,0-0.4c0-0.2,0.2-0.3,0.4-0.3s0.5,0,0.7,0      c0-0.2,0-0.4,0-0.6c3.1,0,6.3,0,9.4,0c0,0.2,0,0.4,0,0.6c0.2,0,0.4,0,0.6,0C566.9,55.2,567.1,55.4,567.1,55.7z"/>
				<path class="st7" d="M566.9,44.4c0,3.3,0,6.5,0,9.8c-3.8,0-7.5,0-11.3,0c0-3.3,0-6.5,0-9.8C559.3,44.4,563.1,44.4,566.9,44.4z"/>
				<path class="st7" d="M564.3,41.5c0,0.1,0,0.2,0,0.3h-0.1c0,0.7,0,1.4,0,2.1c-2,0-3.9,0-5.9,0c0-0.7,0-1.4,0-2.1h-0.1      c0-0.1,0-0.2,0-0.4C560.2,41.5,562.2,41.5,564.3,41.5z"/>
				<path class="st7" d="M555.1,44.4c0,3.3,0,6.5,0,9.8c-0.4,0-0.8,0-1.2,0c-0.2,0-0.4-0.2-0.4-0.5c0-0.4,0-0.9,0-1.4      c0-2.2,0-4.5,0-6.7c0-0.3,0-0.6,0-0.9c0-0.2,0.1-0.3,0.3-0.4c0,0,0,0,0.1,0C554.3,44.4,554.7,44.4,555.1,44.4z"/>
				<path class="st7" d="M553.1,46.3c0,2,0,4,0,6c-0.1,0-0.3,0-0.4,0c-0.1,0-0.2-0.1-0.2-0.3c0-1.3,0-2.6,0-3.9c0-0.5,0-1,0-1.5      c0-0.2,0.1-0.3,0.3-0.3C552.8,46.3,553,46.3,553.1,46.3L553.1,46.3z"/>
				<path class="st7" d="M552,48.4c0,0.6,0,1.2,0,1.8c-0.2,0-0.3,0-0.5,0l-0.1-0.1l0,0h-0.1c-0.6,0-1.2,0-1.9,0      c-0.1,0-0.1,0-0.1-0.1c0-0.4,0-0.8,0-1.1c0-0.1,0-0.1,0.1-0.1c0.6,0,1.2,0,1.9,0h0.1c0-0.1,0-0.2,0.2-0.2      C551.7,48.4,551.9,48.4,552,48.4z"/>
			</g>
		</g>
		<path class="st16" d="M561.2,46.6c1.4,0,2.8,0,4.3,0c0.1,0,0.1,0,0.1,0.2c0,0.3,0,0.3-0.3,0.3c-1.9,0-3.8,0-5.7,0    c-0.9,0-1.8,0-2.7,0c-0.2,0-0.2,0-0.2-0.2c0-0.3,0-0.3,0.3-0.3C558.5,46.6,559.8,46.6,561.2,46.6z"/>
		<path class="st16" d="M561.2,52.3c-1.4,0-2.8,0-4.3,0c-0.1,0-0.1,0-0.1-0.2c0-0.3,0-0.3,0.3-0.3c2.8,0,5.6,0,8.3,0    c0.2,0,0.2,0,0.2,0.2c0,0.3,0,0.3-0.3,0.3C564,52.3,562.6,52.3,561.2,52.3L561.2,52.3z"/>
		<path class="st16" d="M556.8,49.6c0-0.1,0-0.2,0-0.3s0-0.1,0.1-0.1c0.3,0,0.5,0,0.8,0c2.6,0,5.2,0,7.7,0c0.2,0,0.2,0,0.2,0.2    c0,0.1,0,0.1,0,0.2c0,0,0,0-0.1,0h-0.1c-2.7,0-5.4,0-8.1,0C557.2,49.7,557,49.7,556.8,49.6z"/>
		<path class="st16" d="M562,42.8c0,0.4-0.4,0.8-0.8,0.8c-0.4,0-0.8-0.3-0.8-0.8s0.3-0.8,0.8-0.8S562,42.3,562,42.8z M561.2,43.2    c0.3,0,0.5-0.2,0.5-0.5s-0.2-0.5-0.5-0.5s-0.5,0.2-0.5,0.5S561,43.3,561.2,43.2z"/>
	</g>
</g>
<g>
	<g>
		<path class="st7" d="M619.5,54.1l-8.3-9.1l-1.5,1.4c-0.3,0.3-0.3,0.7-0.1,1l2.3,2.6c0.2,0.3,0.3,0.6,0.2,0.9    c-0.1,0.3-0.3,0.6-0.6,0.7c-0.5,0.2-0.9,0.4-1.3,0.8l-1.9,1.7c-0.6,0.5-0.6,1.4-0.1,1.9c0.5,0.6,1.4,0.6,1.9,0.1l1.9-1.7    c0.4-0.3,0.7-0.7,0.9-1.2c0.1-0.3,0.4-0.5,0.8-0.6c0.3,0,0.7,0.1,0.9,0.3l2.3,2.6c0.3,0.3,0.7,0.3,1,0.1L619.5,54.1z"/>
	</g>
	<g>
		<g id="XMLID_17_">
			<g>
				<path class="st7" d="M624.1,49.6c0.1,0.1,0.1,0.4,0,0.5l-4.1,3.7c-0.1,0.1-0.4,0.1-0.5,0l-7.8-8.6c-0.1-0.1-0.1-0.4,0-0.5      l4.1-3.7c0.1-0.1,0.4-0.1,0.5,0l5.8,6.3c0.1,0.1,0.1,0.2,0.1,0.3s0,0.2-0.1,0.2l-1,0.9l1.6-0.4c0.1,0,0.3,0,0.3,0.1L624.1,49.6z      "/>
			</g>
		</g>
	</g>
	<g>
		<path class="st16" d="M617.2,42c0.1,0.1,0.1,0.4,0,0.5l-2.5,2.3c-0.1,0.1-0.4,0.1-0.5,0s-0.1-0.4,0-0.5l2.5-2.3    C616.9,41.8,617.1,41.8,617.2,42z"/>
	</g>
	<g>
		<path class="st16" d="M618.2,43c0.1,0.1,0.1,0.4,0,0.5l-2,1.8c-0.1,0.1-0.4,0.1-0.5,0s-0.1-0.4,0-0.5l2-1.8    C617.8,42.8,618,42.9,618.2,43z"/>
	</g>
	<g>
		<path class="st16" d="M619.1,44c0.1,0.1,0.1,0.4,0,0.5l-1.3,1.1c-0.1,0.1-0.4,0.1-0.5,0s-0.1-0.4,0-0.5l1.3-1.1    C618.7,43.9,619,43.9,619.1,44z"/>
	</g>
</g>
<g id="XMLID_16_">
	<g>
		<polygon class="st7" points="666.7,44.7 666.7,53.5 659.5,57 659.5,47.8   "/>
	</g>
</g>
<g id="XMLID_15_">
	<g>
		<polygon class="st7" points="666.4,44.2 659.3,47.4 652.1,44.3 659.4,41.1   "/>
	</g>
</g>
<g>
	<g>
		<circle class="st11" cx="703.1" cy="49.4" r="4.8"/>
		<path class="st7" d="M703.1,40.5l-7.6,4.4v8.8l7.6,4.4l7.6-4.4v-8.8L703.1,40.5z M703.1,54.2c-2.7,0-4.8-2.2-4.8-4.8    c0-2.7,2.2-4.8,4.8-4.8c2.7,0,4.8,2.2,4.8,4.8C708,52,705.8,54.2,703.1,54.2z"/>
	</g>
</g>
<g id="XMLID_14_">
	<g>
		<path class="st7" d="M752.2,50.7c0,2.4,0,4.7,0,7.2c-0.6,0-1.1-0.1-1.7-0.1c0.1-0.2-0.2-0.6,0.4-0.6c0-1.9,0-3.7,0-5.6    c-0.6,0.1-0.3-0.3-0.4-0.6C751,50.8,751.5,50.8,752.2,50.7z"/>
		<path class="st7" d="M750.7,48.8c0,0.2,0,0.4-0.1,0.6c-2.8,0-5.6,0-8.5,0c0-0.2,0-0.4,0-0.6C745,48.8,747.8,48.8,750.7,48.8z"/>
		<path class="st7" d="M750.7,50c-2.9,0-5.7,0-8.6,0c-0.1-0.3,0-0.4,0.4-0.4c2.7,0,5.3,0,8,0c0,0,0.1,0,0.2,0    C750.7,49.7,750.7,49.8,750.7,50z"/>
		<path class="st7" d="M750.6,52.2c0,1.4,0,2.8,0,4.2c-2.8,0-5.7,0-8.5,0c0-1.4,0-2.8,0-4.2C745,52.2,747.8,52.2,750.6,52.2z"/>
		<path class="st7" d="M750.6,51.7c-1,0.2-1.3-0.2-1.1-1.3c0.3,0.1,0.6,0.2,0.8,0.4C750.3,51.1,750.1,51.5,750.6,51.7z"/>
		<path class="st7" d="M749.6,52c-2.1,0-4.3,0-6.5,0c0.7-0.5,0.3-1.2,0.5-1.8c1.8,0,3.7,0,5.5,0C749.3,50.8,748.9,51.5,749.6,52z"/>
		<path class="st7" d="M743.6,56.5c1.9,0,3.6,0,5.4,0C748.2,57.4,745.1,57.6,743.6,56.5z"/>
		<path class="st7" d="M743.4,50.4c0.2,1.2-0.1,1.5-1,1.4c0.1-0.3,0.1-0.7,0.2-1C742.8,50.7,743,50.5,743.4,50.4z"/>
		<path class="st7" d="M742.3,50.9c-0.1,0.3,0.2,0.6-0.4,0.6c0,1.9,0,3.7,0,5.6c0.6,0,0.4,0.3,0.4,0.6c-0.6,0-1.1,0.1-1.7,0.1    c0-2.4,0-4.7,0-7.2C741.2,50.8,741.7,50.8,742.3,50.9z"/>
	</g>
</g>
<g id="XMLID_13_">
	<g>
		<path class="st7" d="M746.9,42L746.9,42c0,0.3,0,0.5,0,0.8c1-0.2,1,0.4,1.1,1.1c0.3,1.2,0.6,2.4,0.9,3.6c0.1,0.4,0.3,0.7,0.5,1.1    c-2.1,0-4.2,0-6.3,0c0-0.1,0-0.2,0-0.2c0.8-1.2,0.9-2.6,1.3-3.9c0.1-0.3,0.2-0.7,0.2-1c0.1-0.4,0.3-0.7,0.8-0.6c0.1,0,0.1,0,0.3,0    c0-0.3,0-0.3,0-0.7l0,0c-0.6,0-1.2,0-1.8,0c-0.2,0-0.5,0-0.6-0.1s-0.1-0.4,0-0.5s0.4-0.1,0.6-0.1c0.6,0,1.3,0,1.9,0    c0.1,0,0.2-0.2,0.2-0.4c0-0.4,0-0.8,0-1.2c0-0.1,0.1-0.2,0.2-0.3c0.1,0.1,0.2,0.2,0.2,0.3c0,0.4,0,0.7,0,1.1    c0,0.5,0.3,0.6,0.9,0.5c0.2,0,0.5,0,0.7,0s0.3,0,0.5,0s0.5,0,0.5,0.1c0.1,0.1,0.1,0.4,0,0.5c0,0.1-0.3,0.1-0.5,0.1    C748.2,42,747.6,42.1,746.9,42z"/>
	</g>
</g>
<g id="x5rDpN_1_">
	<g>
		<path class="st7" d="M780.7,48.7c0-0.5,0-1,0-1.5c0.2-0.1,0.3-0.2,0.5-0.2c0.3,0,0.4-0.1,0.4-0.4c0.4-2.4,2.5-4.1,5-4.2    c2.4,0,4.6,1.6,5.1,4c0.1,0.4,0.1,0.7,0.6,0.6c0.1,0,0.2,0.1,0.3,0.2c0,0.5,0,1,0,1.5c-0.2,0.1-0.5,0.3-0.8,0.4c0,1.4,0,3,0,4.5    c0,2.9-1.6,4.7-4,6.1c-0.6,0.4-1.3,0.4-2,0.1c-2-0.6-4.4-3.3-4.4-5.8c0-1.5,0-3,0-4.5c0-0.2,0-0.3,0-0.5l-0.1,0.1    C781.1,49,780.9,48.9,780.7,48.7z M790.3,47c-2.4,0-4.8,0-7.2,0c0,1.3,0,2.5,0,3.8c2.4,0,4.8,0,7.2,0    C790.3,49.5,790.3,48.3,790.3,47z M781,47.2c0,0.5,0,1,0,1.6c0.2,0,0.3,0,0.4,0c0-0.5,0-1,0-1.5C781.3,47.2,781.1,47.2,781,47.2z     M791.9,47.2c0,0.5,0,1,0,1.6c0.2,0,0.3,0,0.4,0c0-0.5,0-1,0-1.5C792.2,47.2,792,47.2,791.9,47.2z"/>
	</g>
</g>
<g id="XMLID_10_">
	<g>
		<polygon class="st7" points="659.1,47.8 659.1,57 651.8,53.9 651.8,44.6   "/>
	</g>
</g>
<line class="st18" x1="653.3" y1="51.4" x2="657.2" y2="53"/>
<line class="st18" x1="653.3" y1="48.8" x2="657.2" y2="50.4"/>
<path class="st19" d="M521.5,11.5h-18.6v14.9h18.5l7-7L521.5,11.5z M507.5,21.2c-1.3,0-2.3-1-2.3-2.3s1-2.3,2.3-2.3s2.3,1,2.3,2.3  S508.8,21.2,507.5,21.2z M513.7,21.2c-1.3,0-2.3-1-2.3-2.3s1-2.3,2.3-2.3s2.3,1,2.3,2.3S515,21.2,513.7,21.2z M520,21.2  c-1.3,0-2.3-1-2.3-2.3s1-2.3,2.3-2.3s2.3,1,2.3,2.3S521.2,21.2,520,21.2z"/>
<path class="st7" d="M521.5,34.5h-18.6v14.9h18.5l7-7L521.5,34.5z M507.5,44.2c-1.3,0-2.3-1-2.3-2.3s1-2.3,2.3-2.3s2.3,1,2.3,2.3  S508.8,44.2,507.5,44.2z M513.7,44.2c-1.3,0-2.3-1-2.3-2.3s1-2.3,2.3-2.3s2.3,1,2.3,2.3S515,44.2,513.7,44.2z M520,44.2  c-1.3,0-2.3-1-2.3-2.3s1-2.3,2.3-2.3s2.3,1,2.3,2.3S521.2,44.2,520,44.2z"/>
<g id="_x37_qTC1t.tif">
	<g>
		<path class="st6" d="M838.7,25.2c-1.3,0-2.6,0-4,0c0-0.8,0-1.5,0-2.3c0-0.7-0.4-1.3-1.1-1.5c-0.4-0.1-0.8-0.1-1.1,0.2    c-1.3,1.3-3.3,1.3-4.7,0c-0.2-0.2-0.6-0.3-0.9-0.3c-0.9,0-1.8,0-2.7,0c0-1.3,0-2.6,0-4c0.9,0,1.8,0,2.7,0c0.3,0,0.6-0.2,0.9-0.3    c0.5-0.3,1.1-0.7,1.7-1.1c0-0.7,0-1.6,0-2.5c0.4,0,0.8,0,1.3,0c0,0.9,0,1.7,0,2.4c0.7,0.5,1.3,0.9,1.9,1.3    c0.1,0.1,0.3,0.2,0.5,0.2c2.8,0,5,2.2,5.4,4.4c0,0.1,0.1,0.1,0.1,0.2C838.7,23,838.7,24.1,838.7,25.2z"/>
		<path class="st6" d="M821.6,14.7c2.1,0,2,0.3,2,2.1c0,1.9,0,3.9,0,5.8c0,1.1-0.3,1.4-1.4,1.4c-0.2,0-0.4,0-0.6,0    C821.6,20.9,821.6,17.8,821.6,14.7z"/>
		<path class="st6" d="M829.5,11.4c0-0.2,0.1-0.4,0.1-0.6c0.4,0,0.8,0,1.2,0c0,0.2,0.1,0.3,0.1,0.6c0.8,0,1.6,0.1,2.3-0.3    c0.3-0.2,0.6-0.3,0.9-0.3c0.6,0,1,0.2,1.3,0.8c0.2,0.6,0.1,1.1-0.3,1.5c-0.4,0.4-1,0.6-1.5,0.2c-0.7-0.5-1.4-0.5-2.2-0.5    s-1.6,0-2.5,0c-0.7,0-1.4,0-2.1,0.5c-0.5,0.4-1.3,0.1-1.7-0.4s-0.4-1.1,0-1.6s1.1-0.7,1.7-0.4C827.6,11.5,828.5,11.5,829.5,11.4z"/>
	</g>
</g>
<g id="_x37_qTC1t.tif_1_">
	<g>
		<path class="st8" d="M838.7,56.2c-1.3,0-2.6,0-4,0c0-0.8,0-1.5,0-2.3c0-0.7-0.4-1.3-1.1-1.5c-0.4-0.1-0.8-0.1-1.1,0.2    c-1.3,1.3-3.3,1.3-4.7,0c-0.2-0.2-0.6-0.3-0.9-0.3c-0.9,0-1.8,0-2.7,0c0-1.3,0-2.6,0-4c0.9,0,1.8,0,2.7,0c0.3,0,0.6-0.2,0.9-0.3    c0.5-0.3,1.1-0.7,1.7-1.1c0-0.7,0-1.6,0-2.5c0.4,0,0.8,0,1.3,0c0,0.9,0,1.7,0,2.4c0.7,0.5,1.3,0.9,1.9,1.3    c0.1,0.1,0.3,0.2,0.5,0.2c2.8,0,5,2.1,5.4,4.4c0,0.1,0.1,0.1,0.1,0.2C838.7,54,838.7,55.1,838.7,56.2z"/>
		<path class="st8" d="M821.6,45.7c2.1,0,2,0.3,2,2.1c0,1.9,0,3.9,0,5.8c0,1.1-0.3,1.4-1.4,1.4c-0.2,0-0.4,0-0.6,0    C821.6,51.9,821.6,48.8,821.6,45.7z"/>
		<path class="st8" d="M829.5,42.4c0-0.2,0.1-0.4,0.1-0.6c0.4,0,0.8,0,1.2,0c0,0.2,0.1,0.3,0.1,0.6c0.8,0,1.6,0.1,2.3-0.3    c0.3-0.2,0.6-0.3,0.9-0.3c0.6,0,1,0.2,1.3,0.8c0.2,0.6,0.1,1.1-0.3,1.5c-0.4,0.4-1,0.6-1.5,0.2c-0.7-0.5-1.4-0.5-2.2-0.5    s-1.6,0-2.5,0c-0.7,0-1.4,0-2.1,0.5c-0.5,0.4-1.3,0.1-1.7-0.4s-0.4-1.1,0-1.6s1.1-0.7,1.7-0.4C827.6,42.5,828.5,42.5,829.5,42.4z"/>
	</g>
</g>
<g>
	<path class="st1" d="M364.2,29.7c-0.1,0-0.2,0-0.3-0.1c-0.7-0.2-1.1-0.7-1.1-1.4c0-1.5,0-3.1,0-4.6c0-1.1,0-2.2,0-3.3   c0-0.1,0-0.1,0-0.2c3.2,0,6.5,0,9.7,0c0,0.5,0,1,0,1.4c0,2.2,0,4.4,0,6.6c0,0.9-0.5,1.4-1.3,1.6h-0.1   C368.8,29.7,366.5,29.7,364.2,29.7z"/>
	<path class="st1" d="M360.8,13.4c0.7-0.3,1.3-0.5,2-0.8c0.7,2.3,1.5,4.5,2.2,6.8c-0.1,0-0.1,0-0.2,0c-0.7,0-1.3,0-2,0   c-0.1,0-0.2,0-0.2-0.1C362.1,17.4,361.5,15.4,360.8,13.4C360.8,13.5,360.8,13.4,360.8,13.4z"/>
	<path class="st1" d="M369.2,19.5c-0.2,0-0.4,0-0.6,0c0-0.2,0-0.5,0-0.7c-0.2,0-0.4,0-0.6,0c-0.1,0-0.2,0-0.2,0   c-0.2,0-0.3-0.1-0.3-0.3c0-0.2,0.1-0.3,0.3-0.3c0.2,0,0.4,0,0.6,0c0.1,0,0.1,0,0.2,0c0-0.5,0-0.9,0-1.4c-0.3,0-0.5,0-0.8,0   c-0.1,0-0.2,0-0.3-0.1c-0.1-0.1-0.1-0.2,0-0.3c0-0.1,0.2-0.2,0.3-0.2c0.3,0,0.5,0,0.8,0c0-0.5,0-0.9,0-1.4c-0.2,0-0.4,0-0.6,0   c-0.1,0-0.2,0-0.2,0c-0.2,0-0.3-0.1-0.3-0.3s0.1-0.3,0.3-0.3c0.2,0,0.4,0,0.6,0c0.1,0,0.2,0,0.3,0c0-0.5,0-0.9,0-1.4   c-0.2,0-0.4,0-0.7,0c-0.1,0-0.2,0-0.2,0c-0.2,0-0.2-0.1-0.2-0.3s0.1-0.3,0.3-0.3c0.2,0,0.4,0,0.6,0c0.1,0,0.2,0,0.3,0   c0-0.3,0-0.6,0-0.9c-0.8,0-1.7,0-2.5,0c0,2.7,0,5.4,0,8.1c-0.2,0-0.4,0-0.6,0c0-0.2,0-0.4,0-0.6c0-2.6,0-5.2,0-7.8   c0-0.3,0.1-0.4,0.4-0.4c1,0,2.1,0,3.1,0c0.2,0,0.3,0.1,0.3,0.3c0,2.8,0,5.5,0,8.3C369.2,19.4,369.2,19.4,369.2,19.5z"/>
	<path class="st1" d="M371.8,19.5c0.4-1.6,0.8-3.2,1.3-4.7c-0.3-0.1-0.7-0.2-1-0.3c-0.1,0.2-0.1,0.4-0.2,0.7   c-0.4,1.4-0.7,2.8-1.1,4.2c0,0.1-0.1,0.2-0.2,0.2s-0.3,0-0.5,0c0.1-0.4,0.2-0.9,0.3-1.3c0.4-1.3,0.7-2.7,1.1-4   c0-0.1,0.1-0.3,0.2-0.4c0.5-0.8,1-1.7,1.5-2.5c0.1-0.1,0.2-0.2,0.2-0.2c0.2,0,0.3,0.1,0.3,0.3c0,0.7,0,1.5,0,2.2s-0.1,1.5-0.3,2.2   c-0.3,1.2-0.6,2.4-0.9,3.6c0,0.1-0.1,0.2-0.2,0.2C372.1,19.5,372,19.5,371.8,19.5z M372.3,13.9c0.3,0.1,0.6,0.1,0.9,0.2   c0-0.3,0-0.7,0-1l-0.1-0.1c-0.1,0-0.2,0-0.3,0C372.6,13.3,372.5,13.6,372.3,13.9z"/>
	<path class="st1" d="M361.8,19.4c0,0.2-0.1,0.3-0.3,0.3c-0.2,0-0.3,0-0.3-0.2c-0.1-0.4-0.3-0.8-0.4-1.2c-0.2-1-0.4-1.9-0.5-2.9   c-0.1-0.5-0.2-1-0.4-1.6v-0.1c0-0.2,0-0.3,0.2-0.4c0.2-0.1,0.3,0,0.4,0.2c0.1,0.5,0.3,1,0.4,1.6c0.2,1.1,0.4,2.3,0.6,3.4   c0.1,0.3,0.2,0.5,0.2,0.8C361.8,19.3,361.8,19.4,361.8,19.4z"/>
	<path class="st1" d="M362.5,12.3c-0.5,0.2-1,0.4-1.5,0.6v-0.1c-0.1-0.4-0.3-0.8-0.4-1.2c-0.2-0.6,0.2-1.1,0.8-1.1   c0.3,0,0.6,0.1,0.7,0.4C362.2,11.4,362.3,11.8,362.5,12.3z"/>
</g>
<g>
	<path class="st7" d="M364.2,58.7c-0.1,0-0.2,0-0.3-0.1c-0.7-0.2-1.1-0.7-1.1-1.4c0-1.5,0-3.1,0-4.6c0-1.1,0-2.2,0-3.3   c0-0.1,0-0.1,0-0.2c3.2,0,6.5,0,9.7,0c0,0.5,0,1,0,1.4c0,2.2,0,4.4,0,6.6c0,0.9-0.5,1.4-1.3,1.6h-0.1   C368.8,58.7,366.5,58.7,364.2,58.7z"/>
	<path class="st7" d="M360.8,42.4c0.7-0.3,1.3-0.5,2-0.8c0.7,2.3,1.5,4.5,2.2,6.8c-0.1,0-0.1,0-0.2,0c-0.7,0-1.3,0-2,0   c-0.1,0-0.2,0-0.2-0.1C362.1,46.4,361.5,44.4,360.8,42.4C360.8,42.5,360.8,42.4,360.8,42.4z"/>
	<path class="st7" d="M369.2,48.5c-0.2,0-0.4,0-0.6,0c0-0.2,0-0.5,0-0.7c-0.2,0-0.4,0-0.6,0c-0.1,0-0.2,0-0.2,0   c-0.2,0-0.3-0.1-0.3-0.3s0.1-0.3,0.3-0.3c0.2,0,0.4,0,0.6,0c0.1,0,0.1,0,0.2,0c0-0.5,0-0.9,0-1.4c-0.3,0-0.5,0-0.8,0   c-0.1,0-0.2,0-0.3-0.1c-0.1-0.1-0.1-0.2,0-0.3c0-0.1,0.2-0.2,0.3-0.2c0.3,0,0.5,0,0.8,0c0-0.5,0-0.9,0-1.4c-0.2,0-0.4,0-0.6,0   c-0.1,0-0.2,0-0.2,0c-0.2,0-0.3-0.1-0.3-0.3s0.1-0.3,0.3-0.3c0.2,0,0.4,0,0.6,0c0.1,0,0.2,0,0.3,0c0-0.5,0-0.9,0-1.4   c-0.2,0-0.4,0-0.7,0c-0.1,0-0.2,0-0.2,0c-0.2,0-0.2-0.1-0.2-0.3s0.1-0.3,0.3-0.3c0.2,0,0.4,0,0.6,0c0.1,0,0.2,0,0.3,0   c0-0.3,0-0.6,0-0.9c-0.8,0-1.7,0-2.5,0c0,2.7,0,5.4,0,8.1c-0.2,0-0.4,0-0.6,0c0-0.2,0-0.4,0-0.6c0-2.6,0-5.2,0-7.8   c0-0.3,0.1-0.4,0.4-0.4c1,0,2.1,0,3.1,0c0.2,0,0.3,0.1,0.3,0.3c0,2.8,0,5.5,0,8.3C369.2,48.4,369.2,48.4,369.2,48.5z"/>
	<path class="st7" d="M371.8,48.5c0.4-1.6,0.8-3.2,1.3-4.7c-0.3-0.1-0.7-0.2-1-0.3c-0.1,0.2-0.1,0.4-0.2,0.7   c-0.4,1.4-0.7,2.8-1.1,4.2c0,0.1-0.1,0.2-0.2,0.2s-0.3,0-0.5,0c0.1-0.4,0.2-0.9,0.3-1.3c0.4-1.3,0.7-2.7,1.1-4   c0-0.1,0.1-0.3,0.2-0.4c0.5-0.8,1-1.7,1.5-2.5c0.1-0.1,0.2-0.2,0.2-0.2c0.2,0,0.3,0.1,0.3,0.3c0,0.7,0,1.5,0,2.2s-0.1,1.5-0.3,2.2   c-0.3,1.2-0.6,2.4-0.9,3.6c0,0.1-0.1,0.2-0.2,0.2C372.1,48.5,372,48.5,371.8,48.5z M372.3,42.9c0.3,0.1,0.6,0.1,0.9,0.2   c0-0.3,0-0.7,0-1l-0.1-0.1c-0.1,0-0.2,0-0.3,0C372.6,42.3,372.5,42.6,372.3,42.9z"/>
	<path class="st7" d="M361.8,48.4c0,0.2-0.1,0.3-0.3,0.3c-0.2,0-0.3,0-0.3-0.2c-0.1-0.4-0.3-0.8-0.4-1.2c-0.2-1-0.4-1.9-0.5-2.9   c-0.1-0.5-0.2-1-0.4-1.6v-0.1c0-0.2,0-0.3,0.2-0.4c0.2,0,0.3,0,0.4,0.2c0.1,0.5,0.3,1,0.4,1.6c0.2,1.1,0.4,2.3,0.6,3.4   c0.1,0.3,0.2,0.5,0.2,0.8C361.8,48.3,361.8,48.4,361.8,48.4z"/>
	<path class="st7" d="M362.5,41.3c-0.5,0.2-1,0.4-1.5,0.6v-0.1c-0.1-0.4-0.3-0.8-0.4-1.2c-0.2-0.6,0.2-1.1,0.8-1.1   c0.3,0,0.6,0.1,0.7,0.5S362.3,40.8,362.5,41.3z"/>
</g>
<path d="M63.6,115.9c0.1-0.3,0.2-0.6,0.3-0.9c0.4-1.1,0.8-2.2,1.1-3.3c0-0.1,0-0.2,0-0.3c-0.5-0.9-0.9-1.9-1-3  c-0.3-2.2,0.3-4.2,1.6-5.9c1.2-1.6,2.8-2.6,4.8-3c3.9-0.8,7.8,1.3,9.2,5c1.3,3.5,0,7.5-3.1,9.5c-2.6,1.7-5.4,1.8-8.2,0.4  c-0.1-0.1-0.2-0.1-0.3,0c-1.4,0.4-2.8,0.9-4.2,1.3C63.7,115.9,63.6,115.9,63.6,115.9z M65.6,113.9c0.8-0.3,1.6-0.5,2.3-0.7  c0.2-0.1,0.4-0.1,0.6,0.1c1.4,0.8,2.9,1.1,4.6,0.9c1.8-0.3,3.3-1.2,4.4-2.6c1.1-1.5,1.5-3.2,1.3-5c-0.3-1.8-1.2-3.3-2.6-4.4  c-1.5-1.2-3.3-1.6-5.1-1.3c-1.6,0.2-3,1-4.1,2.2c-1,1.1-1.5,2.4-1.7,3.9c-0.1,1.4,0.2,2.8,1,4c0.2,0.4,0.2,0.7,0.1,1  C66,112.6,65.8,113.3,65.6,113.9z"/>
<path d="M69.4,103.8c0.1,0,0.2,0,0.2,0c0.2,0,0.3,0.1,0.4,0.2c0.2,0.5,0.5,1.1,0.7,1.7c0,0.1,0,0.2,0,0.3c-0.1,0.2-0.3,0.4-0.5,0.6  s-0.2,0.3,0,0.5c0.6,1,1.5,1.8,2.7,2.3c0.2,0.1,0.3,0.1,0.5-0.1s0.4-0.5,0.6-0.7c0.1-0.2,0.3-0.2,0.4-0.1c0.5,0.3,1.1,0.5,1.6,0.8  c0.1,0.1,0.2,0.1,0.2,0.3c0,0.9-0.5,1.4-1.4,1.7c-0.4,0.1-0.8,0.1-1.2-0.1c-0.9-0.3-1.8-0.6-2.6-1.2c-0.7-0.5-1.3-1.2-1.8-1.9  c-0.4-0.5-0.7-1-0.9-1.6c-0.3-0.9-0.2-1.6,0.5-2.3C68.8,103.9,69.1,103.8,69.4,103.8z"/>
<g>
	<path class="st20" d="M137,107.9c0.1,1-0.3,1.8-1,2.4c-2.5,2.3-4.9,4.7-7.4,7.1c-0.6,0.5-1,0.5-1.6,0c-2.3-2.2-4.6-4.5-7-6.7   c-0.6-0.5-0.6-0.9,0-1.4c2.5-2.4,5-4.8,7.5-7.2c0.5-0.5,1.2-0.9,1.9-0.9c1.8,0,3.5,0,5.3,0c1.5,0,2.1,0.8,2.1,2.2   c0,0.8,0,1.6,0,2.4C137,106.5,136.9,107.2,137,107.9z M133,103.5c0,0.8,0.8,1.5,1.6,1.5s1.5-0.7,1.5-1.5s-0.7-1.5-1.5-1.5   C133.7,102,133,102.7,133,103.5z"/>
</g>
<g>
	<path class="st7" d="M135.6,133.2c0.1,1-0.3,1.8-1,2.4c-2.5,2.3-4.9,4.7-7.4,7.1c-0.6,0.5-1,0.5-1.6,0c-2.3-2.2-4.6-4.5-7-6.7   c-0.6-0.5-0.6-0.9,0-1.4c2.5-2.4,5-4.8,7.5-7.2c0.5-0.5,1.2-0.9,1.9-0.9c1.8,0,3.5,0,5.3,0c1.5,0,2.1,0.8,2.1,2.2   c0,0.8,0,1.6,0,2.4C135.6,131.8,135.6,132.5,135.6,133.2z M131.7,128.8c0,0.8,0.8,1.5,1.6,1.5s1.5-0.7,1.5-1.5s-0.7-1.5-1.5-1.5   C132.4,127.4,131.7,128.1,131.7,128.8z"/>
</g>
<g>
	<path class="st20" d="M176,120.6h-4.8c-0.1,0-0.1,0-0.2,0c1.8-0.5,1.8-0.9,0-1.2h0.2h4.8C176,119.3,176,120.2,176,120.6z"/>
</g>
<g>
	<path class="st20" d="M176,123.2h-8.7h-0.1c2.1-0.6,2.1-1,0-1.3h0.1h8.7C176,122.2,176,123,176,123.2z"/>
</g>
<path class="st21" d="M174.7,112.6L174.7,112.6"/>
<g>
	<path class="st22" d="M198.2,101.8c0.3,0.3,0.4,0.6,0.4,1c0,0.1,0,0.3-0.1,0.4l0,0v0.1l0,0l-3.7,10.9c-0.1,0.2-0.2,0.3-0.3,0.5   c-0.3,0.3-0.6,0.4-1,0.4h-16.8c-0.1,0-0.1,0-0.2,0c-0.1,0-0.1,0-0.2,0c-0.3,0-0.6-0.2-0.9-0.4c-0.2-0.2-0.3-0.3-0.3-0.5l-0.1-0.3   l-0.7-3.1l-2.2-9.3l-0.1-0.4c-0.1-0.3-0.3-0.6-0.5-0.8c-0.3-0.3-0.7-0.5-1.2-0.6c-0.1,0-0.1,0-0.2,0h-4.5v-3h6.7   c0.6,0,1,0.2,1.4,0.6c0.2,0.2,0.4,0.5,0.5,0.7v0.2l0,0l0.1,0.3l0.4,1.5v0.2c0.1,0.2,0.2,0.4,0.4,0.6s0.5,0.4,0.9,0.4h0.3H197   c0.1,0,0.1,0,0.2,0c0.1,0,0.1,0,0.2,0C197.7,101.3,198,101.6,198.2,101.8z M197.3,101.3h-0.4 M176.3,101.3h-0.1c-0.1,0-0.1,0-0.2,0    M176.7,115.2h-0.3"/>
</g>
<path class="st20" d="M193,118c0.8,0.8,1.2,1.7,1.2,2.8c0,1.1-0.4,2-1.2,2.8s-1.7,1.2-2.8,1.2s-2-0.4-2.8-1.2  c-0.8-0.8-1.2-1.7-1.2-2.8c0-1.1,0.4-2,1.2-2.8s1.7-1.2,2.8-1.2C191.2,116.8,192.2,117.2,193,118z"/>
<path class="st20" d="M184.2,118c0.8,0.8,1.2,1.7,1.2,2.8c0,1.1-0.4,2-1.2,2.8s-1.7,1.2-2.8,1.2s-2-0.4-2.8-1.2  c-0.8-0.8-1.2-1.7-1.2-2.8c0-1.1,0.4-2,1.2-2.8s1.7-1.2,2.8-1.2C182.4,116.8,183.4,117.2,184.2,118z"/>
<path class="st7" d="M238.9,119.3c-0.6,0.6-1.5,0.6-2,0l-4.3-4.3c-1,0.7-2.3,1.1-3.6,1.1c-3.7,0-6.7-3-6.7-6.7s3-6.7,6.7-6.7  s6.7,3,6.7,6.7c0,1.3-0.4,2.6-1.1,3.6l4.3,4.3C239.5,117.8,239.5,118.7,238.9,119.3z M229,104.6c-2.6,0-4.8,2.1-4.8,4.8  c0,2.6,2.1,4.8,4.8,4.8c2.6,0,4.8-2.1,4.8-4.8S231.6,104.6,229,104.6z"/>
<circle class="st23" cx="264.3" cy="105.5" r="4.6"/>
<path class="st23" d="M266.9,110.6c-0.7,0.4-1.6,0.7-2.6,0.7s-1.8-0.2-2.6-0.7c-1.6,1.4-4,3-4,7.5h6.6h0.1h6.6  C270.9,113.6,268.5,112.1,266.9,110.6z"/>
<path class="st23" d="M321.6,104.7c0,0.8-0.5,1.3-1.3,1.3H301c-0.8,0-1.3-0.5-1.3-1.3l0,0c0-0.8,0.5-1.3,1.3-1.3h19.3  C321.1,103.4,321.6,104,321.6,104.7L321.6,104.7z"/>
<path class="st23" d="M321.6,112.3c0,0.8-0.5,1.3-1.3,1.3H301c-0.8,0-1.3-0.5-1.3-1.3l0,0c0-0.8,0.5-1.3,1.3-1.3h19.3  C321.1,110.9,321.6,111.5,321.6,112.3L321.6,112.3z"/>
<path class="st23" d="M321.6,119.9c0,0.8-0.5,1.3-1.3,1.3H301c-0.8,0-1.3-0.5-1.3-1.3l0,0c0-0.8,0.5-1.3,1.3-1.3h19.3  C321.1,118.6,321.6,119.2,321.6,119.9L321.6,119.9z"/>
<g>
	<path class="st10" d="M358.1,110.7c2.4,0,4.3-1.9,4.3-4.3s-1.9-4.3-4.3-4.3s-4.3,1.9-4.3,4.3C353.7,108.8,355.7,110.7,358.1,110.7z    M358.1,103.2c1.7,0,3.2,1.4,3.2,3.2c0,1.7-1.4,3.2-3.2,3.2c-1.7,0-3.2-1.4-3.2-3.2S356.3,103.2,358.1,103.2z"/>
	<path class="st10" d="M365.5,115.2c-1-1.9-2.8-3.2-4.9-3.9c-0.3-0.1-0.5,0.1-0.7,0.3c-0.4,0.9-1,1.6-1.9,2.2   c-0.8-0.5-1.5-1.3-1.9-2.2c-0.1-0.2-0.4-0.4-0.7-0.3c-2,0.7-3.7,2-4.9,3.9c-0.1,0.1-0.1,0.4,0,0.6c1.5,2.6,4.4,4.3,7.4,4.3   c3.1,0,5.9-1.6,7.4-4.3C365.6,115.6,365.6,115.4,365.5,115.2z M360.7,112.5c0.3,0.1,0.6,0.2,0.9,0.4c-0.4,0.8-1.1,1.7-1.9,2.5   c-0.1-0.1-0.2-0.1-0.3-0.2c-0.2-0.1-0.4-0.4-0.6-0.5C359.6,114.1,360.3,113.4,360.7,112.5z M357.3,114.6c-0.2,0.1-0.4,0.4-0.6,0.5   c-0.1,0.1-0.2,0.1-0.3,0.2c-0.8-0.7-1.5-1.6-1.9-2.5c0.3-0.1,0.6-0.3,0.9-0.4C355.8,113.4,356.5,114.1,357.3,114.6z M358.5,119   v-2.5c0-0.2-0.1-0.4-0.4-0.4c-0.2,0-0.4,0.1-0.4,0.4v2.5c-2.4-0.1-4.6-1.4-5.9-3.4c0.5-0.8,1.3-1.6,2.1-2.2c0.5,0.9,1.3,2,2.3,2.8   c0.1,0.1,0.3,0.1,0.4,0s0.4-0.3,0.5-0.4c0.3-0.2,0.6-0.5,0.9-0.7c0.3,0.1,0.6,0.4,0.9,0.7c0.2,0.1,0.4,0.4,0.6,0.4   c0.1,0.1,0.1,0.1,0.2,0.1s0.1,0,0.2-0.1c1-0.8,1.8-1.9,2.3-2.8c0.8,0.6,1.5,1.3,2.1,2.2C363,117.5,360.9,118.8,358.5,119z"/>
</g>
<g>
	<path class="st10" d="M384.3,102.7h-1c-0.6,0-1.1,0.5-1.1,1.1v14.6c0,0.6,0.5,1.1,1.1,1.1h11.9c0.6,0,1.1-0.5,1.1-1.1v-14.6   c0-0.6-0.5-1.1-1.1-1.1h-1 M386.1,102.7h-1 M387.9,102.7h-1 M389.7,102.7h-1 M391.5,102.7h-1 M393.3,102.7h-1 M394,103.8h1v2h-1.6   c-0.2,0-0.4,0.1-0.4,0.4s0.1,0.4,0.4,0.4h1.7v11.8h-11.9v-11.8h10.3c0.2,0,0.4-0.1,0.4-0.4s-0.1-0.4-0.4-0.4h-10.3v-2h1    M392.2,103.8h1 M390.4,103.8h1 M388.6,103.8h1 M386.8,103.8h1 M385,103.8h1"/>
	<path class="st10" d="M393.2,109.1h-4.6c-0.2,0-0.4,0.1-0.4,0.4s0.1,0.4,0.4,0.4h4.6c0.2,0,0.4-0.1,0.4-0.4   S393.4,109.1,393.2,109.1z"/>
	<path class="st10" d="M386.5,109.1h-1.4c-0.2,0-0.4,0.1-0.4,0.4s0.1,0.4,0.4,0.4h1.4c0.2,0,0.4-0.1,0.4-0.4   S386.7,109.1,386.5,109.1z"/>
	<path class="st10" d="M393.2,111h-4.6c-0.2,0-0.4,0.1-0.4,0.4s0.1,0.4,0.4,0.4h4.6c0.2,0,0.4-0.1,0.4-0.4   C393.6,111.2,393.4,111,393.2,111z"/>
	<path class="st10" d="M386.5,111h-1.4c-0.2,0-0.4,0.1-0.4,0.4s0.1,0.4,0.4,0.4h1.4c0.2,0,0.4-0.1,0.4-0.4   C386.9,111.2,386.7,111,386.5,111z"/>
	<path class="st10" d="M393.2,113.1h-4.6c-0.2,0-0.4,0.1-0.4,0.4c0,0.2,0.1,0.4,0.4,0.4h4.6c0.2,0,0.4-0.1,0.4-0.4   S393.4,113.1,393.2,113.1z"/>
	<path class="st10" d="M386.5,113.1h-1.4c-0.2,0-0.4,0.1-0.4,0.4c0,0.2,0.1,0.4,0.4,0.4h1.4c0.2,0,0.4-0.1,0.4-0.4   S386.7,113.1,386.5,113.1z"/>
	<path class="st10" d="M393.2,115.3h-4.6c-0.2,0-0.4,0.1-0.4,0.4c0,0.2,0.1,0.4,0.4,0.4h4.6c0.2,0,0.4-0.1,0.4-0.4   S393.4,115.3,393.2,115.3z"/>
	<path class="st10" d="M386.5,115.3h-1.4c-0.2,0-0.4,0.1-0.4,0.4c0,0.2,0.1,0.4,0.4,0.4h1.4c0.2,0,0.4-0.1,0.4-0.4   S386.7,115.3,386.5,115.3z"/>
</g>
<g>
	<path class="st10" d="M428.3,108.8c-0.1-0.2-0.4-0.4-0.7-0.3c-0.2,0.1-0.4,0.4-0.3,0.7c0.7,1.7,0.6,3.6-0.1,5.3   c-0.7,1.6-2.1,3-3.9,3.6c-1.7,0.7-3.6,0.6-5.3-0.1c-0.6-0.3-1.1-0.6-1.6-1c0.4,0,0.8,0,1.3-0.1c0.3-0.1,0.4-0.3,0.4-0.6   s-0.3-0.4-0.6-0.4c-0.9,0.1-1.7,0-2.2-0.1c-0.1-0.1-0.4-0.1-0.5,0.1c-0.1,0.1-0.1,0.1-0.1,0.1l0,0v0.1c0,0.1,0,0.2,0,0.3   c0.1,0.4,0.4,1.6,0.3,2.4c-0.1,0.3,0.1,0.5,0.4,0.6h0.1c0.2,0,0.4-0.1,0.5-0.4c0.1-0.4,0.1-0.7,0-1.2c0.5,0.4,1.1,0.8,1.8,1.1   c1,0.4,2.2,0.7,3.2,0.7s1.9-0.1,2.8-0.5c1.9-0.7,3.5-2.2,4.4-4.1C428.9,112.9,429,110.7,428.3,108.8z"/>
	<path class="st10" d="M414.5,108.7c1.6-3.4,5.7-5,9.1-3.4c0.6,0.2,1.1,0.6,1.6,1c-0.4,0-0.8,0-1.3,0.1c-0.3,0.1-0.4,0.3-0.4,0.6   s0.3,0.4,0.6,0.4c1-0.1,1.9,0,2.3,0.1l0,0h0.1l0,0l0,0h0.1c0,0,0,0,0.1,0h0.1l0,0c0,0,0,0,0.1,0c0,0,0,0,0.1,0l0,0l0,0l0,0l0,0   l0.1-0.1l0,0v-0.1l0,0v-0.1l0,0c0-0.1,0-0.1,0-0.1l0,0c-0.1-0.4-0.4-1.6-0.3-2.4c0.1-0.3-0.1-0.5-0.4-0.6s-0.5,0.1-0.6,0.4   c-0.1,0.4-0.1,0.7,0,1.2c-0.5-0.4-1.1-0.7-1.7-1c-4-1.8-8.7,0-10.5,4c-0.9,1.9-1,4-0.2,6.1c0.1,0.2,0.3,0.3,0.4,0.3s0.1,0,0.1,0   c0.2-0.1,0.4-0.4,0.3-0.7C413.7,112.3,413.8,110.3,414.5,108.7z"/>
	<path class="st10" d="M419.2,117.3c0.5,0.1,1.1,0.2,1.6,0.2c2.3,0,4.5-1.3,5.5-3.5c0.7-1.4,0.7-3.1,0.1-4.6   c-0.1-0.1-0.2-0.2-0.4-0.2c-0.1,0.1-0.2,0.2-0.2,0.4c0.5,1.3,0.4,2.8-0.1,4c-1,2.4-3.8,3.7-6.3,2.9c-0.1-0.1-0.4,0.1-0.4,0.2   C418.9,117,419,117.2,419.2,117.3z"/>
	<path class="st10" d="M422.3,106.4c0.1,0.1,0.4-0.1,0.4-0.2c0.1-0.1-0.1-0.4-0.2-0.4c-2.8-0.7-5.8,0.6-7,3.3   c-0.7,1.4-0.7,3.1-0.1,4.6c0.1,0.1,0.1,0.2,0.3,0.2c0.1,0,0.1,0,0.1,0c0.1-0.1,0.2-0.2,0.2-0.4c-0.5-1.3-0.4-2.8,0.1-4   C417.1,107,419.7,105.8,422.3,106.4z"/>
</g>
<g>
	<path class="st10" d="M463.2,109l-6.5-6.5c-0.2-0.2-0.5-0.3-0.8-0.3s-0.6,0.1-0.8,0.3l-2.9,3v-0.9c0-0.3-0.2-0.6-0.6-0.6   c-0.3,0-0.6,0.2-0.6,0.6v2l0,0l-2.4,2.5c-0.2,0.2-0.3,0.5-0.3,0.8v9.1c0,0.6,0.5,1.1,1.1,1.1h13c0.6,0,1.1-0.5,1.1-1.1v-9.1   C463.6,109.5,463.4,109.2,463.2,109z M460.5,119H457v-6.7h3.5V119z M461.3,119v-7.1c0-0.2-0.1-0.4-0.4-0.4h-4.3   c-0.2,0-0.4,0.1-0.4,0.4v7.1h-6.8v-8.8h9.1c0.2,0,0.4-0.1,0.4-0.4s-0.1-0.4-0.4-0.4h-8.7l6.1-6.1l6.1,6.1h-1.4   c-0.2,0-0.4,0.1-0.4,0.4s0.1,0.4,0.4,0.4h1.8v8.8C462.5,119,461.3,119,461.3,119z"/>
	<path class="st10" d="M454.7,111.5h-3.8c-0.2,0-0.4,0.1-0.4,0.4v4c0,0.2,0.1,0.4,0.4,0.4h3.8c0.2,0,0.4-0.1,0.4-0.4v-4   C455,111.6,454.9,111.5,454.7,111.5z M454.3,115.5h-3.1v-3.3h3.1V115.5z"/>
	<path class="st10" d="M458,116.3c0.2,0,0.4-0.1,0.4-0.4V115c0-0.2-0.1-0.4-0.4-0.4s-0.4,0.1-0.4,0.4v0.9   C457.6,116.1,457.7,116.3,458,116.3z"/>
</g>
<path class="st10" d="M481.2,111.1c0.4-1.4,0.8-2.8,1.9-3.9c0.6-0.6,1.2-1.1,1.9-1.6c0.5-0.4,0.7-0.2,0.7,0.4c0.1,1-0.1,1.9-0.9,2.7  c-1.6,1.8-1.8,4.5-0.4,6.5c1.3,2,3.8,3,6.1,2.4c2.4-0.7,4.1-2.8,4.1-5.2c0-1.6-0.5-3-1.7-4.1c-0.4-0.4-0.7-2.2-0.4-2.6  c0.1-0.1,0.5-0.1,0.7,0c1.7,1,2.8,2.5,3.4,4.5c0.1,0.3,0.2,0.7,0.3,1c0,0.7,0,1.5,0,2.2c-0.1,0.1-0.1,0.2-0.1,0.4  c-0.4,1.9-1.4,3.5-3,4.8c-1,0.8-2.2,1.2-3.5,1.5c-0.7,0-1.5,0-2.2,0c-0.1-0.1-0.2-0.1-0.4-0.1c-3-0.7-4.9-2.5-6-5.3  c-0.1-0.4-0.2-0.8-0.3-1.2C481.2,112.6,481.2,111.8,481.2,111.1z"/>
<path class="st10" d="M489.5,102.2c0.5,0.4,0.7,0.8,0.7,1.5c-0.1,1.6,0,3.3,0,5c0,0.9-0.4,1.3-1.1,1.3s-1-0.4-1-1.3c0-1.6,0-3.3,0-5  c0-0.7,0.1-1.1,0.7-1.5C488.9,102.2,489.2,102.2,489.5,102.2z"/>
<path class="st1" d="M521.5,59.5h-18.6v14.9h18.5l7-7L521.5,59.5z M507.5,69.2c-1.3,0-2.3-1-2.3-2.3s1-2.3,2.3-2.3s2.3,1,2.3,2.3  S508.8,69.2,507.5,69.2z M513.7,69.2c-1.3,0-2.3-1-2.3-2.3s1-2.3,2.3-2.3s2.3,1,2.3,2.3S515,69.2,513.7,69.2z M520,69.2  c-1.3,0-2.3-1-2.3-2.3s1-2.3,2.3-2.3s2.3,1,2.3,2.3S521.2,69.2,520,69.2z"/>
<path d="M23.3,112.7c-2.2,0-4.4-0.1-6.5,0c-1.1,0-2.3-1.2-2.3-2.2c0.1-2.2,0-4.4,0-6.6c0-0.2,0-0.5,0.1-0.7c0.2-0.6,0.8-0.7,1.3-0.3  c1.1,0.9,2.2,1.8,3.3,2.6c1,0.8,1.9,1.6,2.9,2.3c0.8,0.6,1.7,0.6,2.5,0c2-1.6,3.9-3.2,5.9-4.8c0.3-0.3,0.6-0.5,1.1-0.3  c0.4,0.2,0.6,0.6,0.6,1.1c0,2.3,0,4.5,0,6.8c0,1.1-1,2.1-2.2,2.1C27.7,112.8,25.5,112.7,23.3,112.7z"/>
<path d="M23.3,100.9c1.9,0,3.8,0,5.7,0c0.2,0,0.5,0,0.7,0.1c0.4,0.1,0.5,0.3,0.2,0.6c-0.2,0.2-0.4,0.4-0.7,0.6  c-1.5,1.3-3.1,2.5-4.6,3.8c-0.8,0.7-1.7,0.7-2.5,0c-1.7-1.4-3.4-2.7-5-4.1c-0.2-0.2-0.3-0.5-0.5-0.7c0.3-0.1,0.6-0.2,0.8-0.3  C19.4,100.9,21.4,100.9,23.3,100.9z"/>
<g>
	<path class="st1" d="M570.2,107.4c0-0.1,0-0.3,0-0.4c-0.6-0.5-1.1-1.1-1.7-1.6c-0.1-0.1-0.4-0.2-0.6-0.1c-0.1,0-0.3,0.4-0.2,0.5   c0.3,0.5,0,0.9-0.4,1.2c-1.1,1-2.2,2-3.4,2.9c-0.2,0.2-0.6,0.3-1,0.5c0-0.6-0.1-1.1-0.1-1.6c-2.9,0-5.8,0-8.6,0   c0,0.5-0.1,1-0.1,1.6c-1.6-1.4-1.7-3.5-1-4.9c0.8-1.8,2.8-2.8,4.7-2.5c1.8,0.3,3.3,1.8,3.4,3.6c-0.3,0-0.5,0-0.8,0   c-1.7,0-3.4,0-5.1,0c-1.1,0-1.3,0.3-1.1,1.4c2.9,0,5.7,0,8.6,0c-0.1-0.6-0.1-1-0.2-1.5c-0.3-2.1-1.5-3.7-3.5-4.5s-3.9-0.5-5.7,0.8   c-1.3,1-1.9,2.3-2.3,3.8c0,0.5,0,1.1,0,1.6c0.3,1.1,0.6,2.4,1.6,3.1c1.2,0.9,1.5,1.9,1.3,3.3c0,0.2,0,0.5,0,0.7   c0,0.5,0.3,0.8,0.8,0.8c2.4,0,4.7,0,7.1,0c0.3,0,0.6-0.2,0.7-0.5c0.7-1.2,1.3-2.4,2.1-3.5c0.9-1.3,2-2.5,3.1-3.7   c0.3-0.3,0.8-0.5,1.3-0.7C569.6,107.4,569.9,107.5,570.2,107.4z"/>
</g>
<g>
	<path class="st7" d="M570.2,131.4c0-0.1,0-0.3,0-0.4c-0.6-0.5-1.1-1.1-1.7-1.6c-0.1-0.1-0.4-0.2-0.6-0.1c-0.1,0-0.3,0.4-0.2,0.5   c0.3,0.5,0,0.9-0.4,1.2c-1.1,1-2.2,2-3.4,2.9c-0.2,0.2-0.6,0.3-1,0.5c0-0.6-0.1-1.1-0.1-1.6c-2.9,0-5.8,0-8.6,0   c0,0.5-0.1,1-0.1,1.6c-1.6-1.4-1.7-3.5-1-4.9c0.8-1.8,2.8-2.8,4.7-2.5c1.8,0.3,3.3,1.8,3.4,3.6c-0.3,0-0.5,0-0.8,0   c-1.7,0-3.4,0-5.1,0c-1.1,0-1.3,0.3-1.1,1.4c2.9,0,5.7,0,8.6,0c-0.1-0.6-0.1-1-0.2-1.5c-0.3-2.1-1.5-3.7-3.5-4.5s-3.9-0.5-5.7,0.8   c-1.3,1-1.9,2.3-2.3,3.8c0,0.5,0,1.1,0,1.6c0.3,1.1,0.6,2.4,1.6,3.1c1.2,0.9,1.5,1.9,1.3,3.3c0,0.2,0,0.5,0,0.7   c0,0.5,0.3,0.8,0.8,0.8c2.4,0,4.7,0,7.1,0c0.3,0,0.6-0.2,0.7-0.5c0.7-1.2,1.3-2.4,2.1-3.5c0.9-1.3,2-2.5,3.1-3.7   c0.3-0.3,0.8-0.5,1.3-0.7C569.6,131.4,569.9,131.5,570.2,131.4z"/>
</g>
<path class="st1" d="M606.1,104.4c2.1,0,4.2,0,6.2,0c1.4,0,2.3,0.9,2.3,2.3c0,2.8,0,5.4,0,8.2c0,1.4-0.9,2.3-2.3,2.3  c-4.2,0-8.3,0-12.5,0c-1.4,0-2.3-0.9-2.3-2.3c0-2.8,0-5.4,0-8.2c0-1.4,0.9-2.3,2.3-2.3C601.9,104.4,604,104.4,606.1,104.4z"/>
<path class="st1" d="M602.6,103.4c-0.4,0-0.8,0-1.1,0c0-0.5,0-1,0-1.5c0.1-1.1,1.1-1.9,2.3-2c1.5,0,3.2,0,4.7,0c1.4,0,2.3,1,2.3,2.4  c0,0.4,0,0.8,0,1.1c-0.4,0-0.8,0-1.1,0c0-0.3,0-0.6,0-0.9c0-0.9-0.5-1.4-1.4-1.4c-1.4,0-2.8,0-4.3,0  C602.1,101.2,602.6,103.2,602.6,103.4z"/>
<path class="st7" d="M605.2,110c0-0.2,0-0.4,0-0.6c0-0.4,0-0.8,0-1.2c0-0.2,0.2-0.4,0.4-0.4c0.3,0,0.7,0,1,0c0.2,0,0.4,0.2,0.4,0.4  c0,0.6,0,1.1,0,1.7v0.1h0.1c0.6,0,1.1,0,1.7,0c0.3,0,0.5,0.2,0.5,0.5s0,0.6,0,0.9c0,0.2-0.1,0.4-0.3,0.4c-0.1,0-0.1,0-0.2,0  c-0.6,0-1.1,0-1.7,0H607v0.1c0,0.6,0,1.1,0,1.7c0,0.2-0.2,0.4-0.4,0.4c-0.3,0-0.6,0-0.9,0c-0.3,0-0.4-0.2-0.4-0.4c0-0.6,0-1.1,0-1.7  v-0.1h-0.1c-0.6,0-1.1,0-1.7,0c-0.2,0-0.3-0.1-0.4-0.2c0-0.1,0-0.1,0-0.2c0-0.3,0-0.6,0-0.9s0.2-0.5,0.5-0.5  C604,110,604.6,110,605.2,110C605.1,110,605.2,110,605.2,110z"/>
<path class="st7" d="M606.1,134.4c2.1,0,4.2,0,6.2,0c1.4,0,2.3,0.9,2.3,2.3c0,2.8,0,5.4,0,8.2c0,1.4-0.9,2.3-2.3,2.3  c-4.2,0-8.3,0-12.5,0c-1.4,0-2.3-0.9-2.3-2.3c0-2.8,0-5.4,0-8.2c0-1.4,0.9-2.3,2.3-2.3C601.9,134.4,604,134.4,606.1,134.4z"/>
<path class="st7" d="M602.6,133.4c-0.4,0-0.8,0-1.1,0c0-0.5,0-1,0-1.5c0.1-1.1,1.1-1.9,2.3-2c1.5,0,3.2,0,4.7,0c1.4,0,2.3,1,2.3,2.4  c0,0.4,0,0.8,0,1.1c-0.4,0-0.8,0-1.1,0c0-0.3,0-0.6,0-0.9c0-0.9-0.5-1.4-1.4-1.4c-1.4,0-2.8,0-4.3,0  C602.1,131.2,602.6,133.2,602.6,133.4z"/>
<path class="st1" d="M605.2,140c0-0.2,0-0.4,0-0.6c0-0.4,0-0.8,0-1.2c0-0.2,0.2-0.4,0.4-0.4c0.3,0,0.7,0,1,0c0.2,0,0.4,0.2,0.4,0.4  c0,0.6,0,1.1,0,1.7v0.1h0.1c0.6,0,1.1,0,1.7,0c0.3,0,0.5,0.2,0.5,0.5s0,0.6,0,0.9c0,0.2-0.1,0.4-0.3,0.4c-0.1,0-0.1,0-0.2,0  c-0.6,0-1.1,0-1.7,0H607v0.1c0,0.6,0,1.1,0,1.7c0,0.2-0.2,0.4-0.4,0.4c-0.3,0-0.6,0-0.9,0c-0.3,0-0.4-0.2-0.4-0.4c0-0.6,0-1.1,0-1.7  v-0.1h-0.1c-0.6,0-1.1,0-1.7,0c-0.2,0-0.3-0.1-0.4-0.2c0-0.1,0-0.1,0-0.2c0-0.3,0-0.6,0-0.9c0-0.3,0.2-0.5,0.5-0.5  C604,140,604.6,140,605.2,140C605.1,140,605.2,140,605.2,140z"/>
<circle class="st24" cx="678.5" cy="103.9" r="13.3"/>
<circle class="st7" cx="671.7" cy="104" r="2.4"/>
<circle class="st7" cx="678.3" cy="104" r="2.4"/>
<circle class="st7" cx="685" cy="104" r="2.4"/>
<circle class="st7" cx="678.5" cy="135.9" r="13.3"/>
<circle class="st24" cx="671.7" cy="136" r="2.4"/>
<circle class="st24" cx="678.3" cy="136" r="2.4"/>
<circle class="st24" cx="685" cy="136" r="2.4"/>
<circle class="st24" cx="738.5" cy="104" r="13.3"/>
<path class="st7" d="M731.1,102.7c0-0.9,0-1.9,0-2.8c0.1,0,0.3,0,0.4,0c1.2,0,2.5,0,3.7,0c0.1,0,0.2,0,0.5,0  c-0.2-0.2-0.3-0.3-0.4-0.4c-0.5-0.5-0.9-1.1-1-1.8c-0.1-0.9,0.4-1.6,1.4-1.6c1,0,1.8,0.6,2.4,1.3c0.2,0.2,0.3,0.4,0.5,0.6  c0,0,0,0,0.1,0c0.1-0.1,0.1-0.2,0.2-0.2c0.6-0.8,1.3-1.4,2.3-1.6c1.2-0.3,2,0.5,1.7,1.7c-0.1,0.5-0.4,0.9-0.6,1.3  c-0.2,0.3-0.4,0.5-0.7,0.8c0.2,0,0.3,0,0.4,0c1,0,2.1,0,3.1,0c0.3,0,0.7,0,1,0c0,0.9,0,1.9,0,2.8c-0.1,0-0.2,0-0.3,0  c-1.8,0-3.7,0-5.5,0c-0.1,0-0.2,0-0.3,0c0-0.7,0-1.4,0-2c-0.3,0-0.5,0-0.8,0c0,0.7,0,1.4,0,2.1c-0.4,0-0.7,0-1.1,0  c0-0.7,0-1.4,0-2.1c-0.3,0-0.5,0-0.8,0c0,0.7,0,1.4,0,2.1c-0.1,0-0.2,0-0.3,0c-1.8,0-3.7,0-5.5,0  C731.3,102.8,731.2,102.7,731.1,102.7z M738.1,99.4c0-1-1.5-2.5-2.5-2.5c-0.4,0-0.5,0.2-0.5,0.6c0.1,1,1.4,2.2,2.4,2.4  c0,0,0.1,0,0.1,0C738,99.8,738.1,99.7,738.1,99.4z M739.5,99.8c0.9,0,2.2-1.1,2.4-2.1c0.1-0.2,0.1-0.6-0.1-0.7  c-0.2-0.1-0.5-0.2-0.7-0.1c-1,0.3-1.7,1-2.1,2c0,0.1-0.1,0.2-0.1,0.3C739,99.7,739.1,99.8,739.5,99.8z"/>
<path class="st7" d="M732.1,103.5c1.7,0,3.4,0,5.1,0c0,2.8,0,5.5,0,8.3c-1.7,0-3.4,0-5.1,0C732.1,109.1,732.1,106.3,732.1,103.5z"/>
<path class="st7" d="M745,111.9c-1.7,0-3.4,0-5.1,0c0-2.8,0-5.5,0-8.3c1.7,0,3.4,0,5.1,0C745,106.3,745,109.1,745,111.9z"/>
<path class="st7" d="M738,103.5c0.4,0,0.7,0,1.1,0c0,2.8,0,5.5,0,8.3c-0.3,0-0.7,0-1.1,0C738,109.1,738,106.3,738,103.5z"/>
<circle class="st7" cx="738.5" cy="136" r="13.3"/>
<path class="st24" d="M731.1,134.7c0-0.9,0-1.9,0-2.8c0.1,0,0.3,0,0.4,0c1.2,0,2.5,0,3.7,0c0.1,0,0.2,0,0.5,0  c-0.2-0.2-0.3-0.3-0.4-0.4c-0.5-0.5-0.9-1.1-1-1.8c-0.1-0.9,0.4-1.6,1.4-1.6c1,0,1.8,0.6,2.4,1.3c0.2,0.2,0.3,0.4,0.5,0.6  c0,0,0,0,0.1,0c0.1-0.1,0.1-0.2,0.2-0.2c0.6-0.8,1.3-1.4,2.3-1.6c1.2-0.3,2,0.5,1.7,1.7c-0.1,0.5-0.4,0.9-0.6,1.3  c-0.2,0.3-0.4,0.5-0.7,0.8c0.2,0,0.3,0,0.4,0c1,0,2.1,0,3.1,0c0.3,0,0.7,0,1,0c0,0.9,0,1.9,0,2.8c-0.1,0-0.2,0-0.3,0  c-1.8,0-3.7,0-5.5,0c-0.1,0-0.2,0-0.3,0c0-0.7,0-1.4,0-2c-0.3,0-0.5,0-0.8,0c0,0.7,0,1.4,0,2.1c-0.4,0-0.7,0-1.1,0  c0-0.7,0-1.4,0-2.1c-0.3,0-0.5,0-0.8,0c0,0.7,0,1.4,0,2.1c-0.1,0-0.2,0-0.3,0c-1.8,0-3.7,0-5.5,0  C731.3,134.8,731.2,134.7,731.1,134.7z M738.1,131.4c0-1-1.5-2.5-2.5-2.5c-0.4,0-0.5,0.2-0.5,0.6c0.1,1,1.4,2.2,2.4,2.4  c0,0,0.1,0,0.1,0C738,131.8,738.1,131.7,738.1,131.4z M739.5,131.8c0.9,0,2.2-1.1,2.4-2.1c0.1-0.2,0.1-0.6-0.1-0.7  c-0.2-0.1-0.5-0.2-0.7-0.1c-1,0.3-1.7,1-2.1,2c0,0.1-0.1,0.2-0.1,0.3C739,131.7,739.1,131.8,739.5,131.8z"/>
<path class="st24" d="M732.1,135.5c1.7,0,3.4,0,5.1,0c0,2.8,0,5.5,0,8.3c-1.7,0-3.4,0-5.1,0C732.1,141.1,732.1,138.3,732.1,135.5z"/>
<path class="st24" d="M745,143.9c-1.7,0-3.4,0-5.1,0c0-2.8,0-5.5,0-8.3c1.7,0,3.4,0,5.1,0C745,138.3,745,141.1,745,143.9z"/>
<path class="st24" d="M738,135.5c0.4,0,0.7,0,1.1,0c0,2.8,0,5.5,0,8.3c-0.3,0-0.7,0-1.1,0C738,141.1,738,138.3,738,135.5z"/>
<style xmlns="" type="text/css" id="igtranslator-color"/></svg>