<?xml version="1.0" encoding="UTF-8"?>
<!-- Generator: Adobe Illustrator 22.0.1, SVG Export Plug-In . SVG Version: 6.00 Build 0)  -->
<svg version="1.1" id="Capa_1" xmlns="http://www.w3.org/2000/svg" xmlns:xlink="http://www.w3.org/1999/xlink" x="0px" y="0px" width="1054.4px" height="649.2px" viewBox="0 0 1054.4 649.2" style="enable-background:new 0 0 1054.4 649.2;" xml:space="preserve">
<style type="text/css">
	.st0{fill:#927266;stroke:#000000;stroke-width:1.5;stroke-miterlimit:10;}
	.st1{fill:#82635A;stroke:#000000;stroke-width:1.5;stroke-miterlimit:10;}
	.st2{fill:#FED9A8;stroke:#000000;stroke-width:1.5;stroke-miterlimit:10;}
	.st3{fill:#2D5872;stroke:#000000;stroke-width:1.5;stroke-miterlimit:10;}
	.st4{fill:#FFB125;stroke:#000000;stroke-width:1.5;stroke-miterlimit:10;}
	.st5{fill:#FF901D;stroke:#000000;stroke-width:1.5;stroke-miterlimit:10;}
	.st6{fill:#FED9A8;}
	.st7{fill:#6587E5;stroke:#353535;stroke-width:1.5;stroke-miterlimit:10;}
	.st8{fill:#353535;}
	.st9{fill:#4F71ED;stroke:#353535;stroke-width:1.5;stroke-miterlimit:10;}
	.st10{fill:#FFFFFF;stroke:#353535;stroke-width:1.5;stroke-miterlimit:10;}
	.st11{fill:#9BCC23;stroke:#000000;stroke-width:1.5;stroke-miterlimit:10;}
	.st12{fill:#DBC840;stroke:#000000;stroke-width:1.5;stroke-miterlimit:10;}
	.st13{fill:#323232;stroke:#323232;stroke-miterlimit:10;}
	.st14{fill:#EEEEEE;stroke:#000000;stroke-width:0.5;stroke-miterlimit:10;}
	.st15{fill:#020202;}
	.st16{fill:#FFFFFF;}
	.st17{fill:#020202;stroke:#000000;stroke-width:0.5;stroke-miterlimit:10;}
	.st18{fill:#FFB125;}
	.st19{fill:#FF901D;}
	.st20{fill:#61AFF6;}
	.st21{fill:#55A2F0;}
	.st22{fill:#FFD0A1;}
	.st23{fill:#F79F00;stroke:#000000;stroke-width:1.5;stroke-miterlimit:10;}
	.st24{fill:#EE8A00;}
	.st25{fill:#4CAF50;}
	.st26{fill:#ECEFF1;stroke:#000000;stroke-width:1.5;stroke-miterlimit:10;}
	.st27{fill:#455A64;stroke:#000000;stroke-width:1.5;stroke-miterlimit:10;}
	.st28{fill:#FF6A00;}
	.st29{fill:#61AFF6;stroke:#000000;stroke-width:1.5;stroke-miterlimit:10;}
	.st30{fill:#278CC9;}
	.st31{fill:#FF3A00;stroke:#000000;stroke-width:1.5;stroke-miterlimit:10;}
	.st32{fill:#FFAB00;stroke:#000000;stroke-width:1.5;stroke-miterlimit:10;}
</style>
<path class="st0" d="M88.4,32.4H44.3c-0.3,0-0.6,0.2-0.7,0.5l-2.3,5.9V77c0,1.1,0.9,1.9,1.9,1.9h46.2c1.1,0,1.9-0.9,1.9-1.9V38.8  L89,32.9C88.9,32.6,88.7,32.4,88.4,32.4z"/>
<path class="st1" d="M89.5,79H43.3c-1.1,0-1.9-0.9-1.9-1.9V38.9h50.1v38.2C91.4,78.1,90.5,79,89.5,79z"/>
<g>
	<path id="SVGCleanerId_0_1_" class="st2" d="M69.6,57c0.3,1-0.3,2.1-1.3,2.4L60,62l0.5,0.2l5.5,2.3l9.1,3.7   c1.1,0.5,1.6,1.7,1.2,2.8l0,0c-2.9,1.8-13.9-3.4-15-3.8l14.3,5.9c1.1,0.5,1.6,1.7,1.2,2.8l0,0c-0.5,1.1-1.7,1.6-2.8,1.2l-14.7-6.4   c1.1,0.4,14.2,7.2,13.8,8.3c-0.4,1.1-1.8,1.7-2.9,1.2l-12.1-5.1c1.1,0.5,12,6.1,11.6,7.2l0,0c-0.5,1.1-1.7,1.6-2.8,1.2l-16-6.5   c-1.6-0.6-3-1.7-4-3l0,0c-1.1-1.3-2.4-2.4-4-3l-6.6-2.7l4.6-11.4l5.7,2.3c1.9,0.8,20.8-3.5,20.8-3.5C68.4,55.5,69.3,56.1,69.6,57z"/>
</g>
<path class="st3" d="M40.2,55.2c0.2-0.4,0.7-0.6,1.1-0.5l4.5,1.8c0.4,0.2,0.6,0.7,0.5,1.1L40.8,71c-0.2,0.4-0.7,0.6-1.1,0.5  l-4.5-1.8c-0.4-0.2-0.6-0.7-0.5-1.1L40.2,55.2"/>
<path class="st4" d="M70.5,32.4h-8.4l-1.5,6.4v13.5c0,0.4,0.4,0.6,0.7,0.3l4.7-4.2c0.2-0.1,0.4-0.1,0.6,0l4.7,4.2  c0.3,0.2,0.7,0,0.7-0.3V38.8L70.5,32.4z"/>
<path class="st5" d="M71.3,52.6l-4.7-4.2c-0.2-0.1-0.4-0.1-0.6,0l-4.7,4.2c-0.3,0.2-0.7,0-0.7-0.3V38.8H72v13.5  C72,52.7,71.6,52.9,71.3,52.6z"/>
<path class="st6" d="M299.7,455.4L299.7,455.4L299.7,455.4z"/>
<path id="Portfolio" class="st7" d="M376.5,43.9c0-0.1,0-0.2,0-0.2c0-1.6-1.4-3-3-3H362V39c0-2.2-1.7-4-3.9-4h-12  c-2.1,0-3.9,1.8-3.9,4v1.7h-11.4c-1.7,0-3,1.4-3,3v31.9c0,1.7,1.4,3,3,3h42.5c1.7,0,3-1.4,3-3v-31C376.5,44.4,376.5,44.1,376.5,43.9  z"/>
<path class="st8" d="M350.3,56.7h3.8v2.8c0,0.1,0,0.1-0.1,0.1h-3.6c-0.1,0-0.1,0-0.1-0.1L350.3,56.7L350.3,56.7z"/>
<path class="st8" d="M345.8,56.7h3.3v2.8c0,0.7,0.6,1.2,1.2,1.2h3.6c0.7,0,1.2-0.6,1.2-1.2v-2.8h3.3v4.7c0,0.7-0.6,1.2-1.2,1.2  h-10.3c-0.7,0-1.2-0.6-1.2-1.2v-4.7H345.8z"/>
<path class="st9" d="M330.2,41.2H342v3.5c0,0.4,0.4,0.8,0.8,0.8s0.8-0.4,0.8-0.8v-3.5h17.3v3.5c0,0.4,0.4,0.8,0.8,0.8  s0.8-0.4,0.8-0.8v-3.5h11.8c0.9,0,1.6,0.7,1.6,1.6v1.1c-0.5,6.9-6.5,12.4-13.8,12.4h-19.4c-7.6,0-13.9-6-13.9-13.3  c0-0.1,0-0.1,0-0.2C328.6,41.9,329.3,41.2,330.2,41.2z"/>
<path class="st10" d="M343.3,38.1c0-1.5,1.1-2.7,2.5-2.7h12.7c1.4,0,2.5,1.2,2.5,2.7v2.6h-17.7V38.1z"/>
<g>
	<path class="st2" d="M434.7,44.6L434.7,44.6L434.7,44.6z"/>
	<path class="st2" d="M459.4,69.4c-2-0.7-4.8-0.9-6.6-1.3c-1-0.2-2.6-0.8-3.1-1.4s-0.2-6.3-0.2-6.3s0.9-1.5,1.4-2.8s1.1-4.8,1.1-4.8   s1,0,1.4-1.8c0.4-2,1-2.8,0.9-4.3c-0.1-1.4-0.8-1.5-0.9-1.5l0,0c0,0,0.8-2.1,0.9-6.5c0.1-5.2-3.9-10.4-11.4-10.4   s-11.5,5.1-11.4,10.4c0.1,4.4,0.9,6.5,0.9,6.5l0,0c-0.1,0-0.8,0.1-0.9,1.5c-0.1,1.5,0.6,2.3,0.9,4.3c0.4,1.8,1.4,1.8,1.4,1.8   s0.6,3.5,1.1,4.8s1.4,2.8,1.4,2.8s0.3,5.7-0.2,6.3s-2,1.2-3.1,1.4c-1.8,0.4-4.6,0.7-6.6,1.4s-8.1,3.1-8.1,8h24.5h24.5   C467.4,72.5,461.3,70.1,459.4,69.4z"/>
</g>
<path class="st11" d="M572.8,48.8h-37.2v-3.4c0-6-4.9-10.8-10.9-10.8s-10.9,4.9-10.9,10.8v15.7c0,6,4.9,10.8,10.9,10.8  s10.9-4.9,10.9-10.8v-3.4h20v6.2c0,0.5,0.4,0.9,0.9,0.9h4.1c0.5,0,0.9-0.4,0.9-0.9v-2.1h1.2v2.1c0,0.5,0.4,0.9,0.9,0.9h4.1  c0.5,0,0.9-0.4,0.9-0.9v-6.2h4.1c0.5,0,0.9-0.4,0.9-0.9v-7.1C573.7,49.2,573.3,48.8,572.8,48.8z M529.8,59.8c0,2.6-2.1,4.7-4.7,4.7  s-4.7-2.1-4.7-4.7V46.7c0-2.6,2.1-4.7,4.7-4.7s4.7,2.1,4.7,4.7V59.8z"/>
<g>
	<path class="st12" d="M652.8,27.8c-10,0-18.1,8.2-18.1,18.1c0,14.3,18.1,38.5,18.1,38.5s18.1-24.2,18.1-38.4   C671.1,36,662.8,27.8,652.8,27.8z M652.8,54.1c-4.4,0-8.1-3.6-8.1-8.1s3.6-8.1,8.1-8.1s8.1,3.6,8.1,8.1S657.3,54.1,652.8,54.1z"/>
</g>
<g>
	<path class="st13" d="M76.4,249.4c-0.5-0.5-1.1-0.7-1.7-0.7H59c-1.3,0-2.3,0.5-3,1.5l-5.8,7.7l5.8,7.7l0,0l0,0   c0.4,0.5,0.8,0.8,1.2,1.1c0.5,0.3,1.1,0.5,1.8,0.5h15.6c1.4,0,2.4-1.2,2.4-2.6v-13.4C77,250.5,76.8,249.8,76.4,249.4z"/>
</g>
<g id="Blocknote">
	<path class="st14" d="M191.1,248.8H189v-1.6c0-0.2-0.2-0.4-0.4-0.4H186c0-0.2,0.1-0.6-0.3-1c-0.4-0.5-1-0.8-2-0.8   c-1.2-0.1-2,0.2-2.5,0.7c-0.3,0.4-0.4,0.9-0.3,1.1h-2.5c-0.2,0-0.4,0.2-0.4,0.4v1.6h-2.2c-1,0-1.8,0.8-1.8,1.8v15.8   c0,1,0.8,1.8,1.8,1.8H191c1,0,1.8-0.8,1.8-1.8v-15.8C192.9,249.6,192.1,248.8,191.1,248.8z"/>
</g>
<path class="st15" d="M178.7,255.2h10c0.2,0,0.4-0.2,0.4-0.4s-0.2-0.4-0.4-0.4h-10c-0.2,0-0.4,0.2-0.4,0.4S178.5,255.2,178.7,255.2z  "/>
<path class="st15" d="M178.7,258.8h10c0.2,0,0.4-0.2,0.4-0.4c0-0.2-0.2-0.4-0.4-0.4h-10c-0.2,0-0.4,0.2-0.4,0.4  C178.3,258.6,178.5,258.8,178.7,258.8z"/>
<path class="st15" d="M178.7,262.4h10c0.2,0,0.4-0.2,0.4-0.4c0-0.2-0.2-0.4-0.4-0.4h-10c-0.2,0-0.4,0.2-0.4,0.4  C178.3,262.2,178.5,262.4,178.7,262.4z"/>
<path class="st15" d="M178.5,246.9h10.1c0.2,0,0.4,0.2,0.4,0.4v2.5c0,0.3-0.2,0.5-0.5,0.5h-9.8c-0.3,0-0.5-0.2-0.5-0.5v-2.4  C178.1,247.1,178.3,246.9,178.5,246.9z"/>
<path class="st16" d="M181.4,245.9c0.3-0.4,0.9-0.8,2.4-0.7c0.9,0.1,1.6,0.3,1.9,0.8c0.2,0.4,0.2,0.7,0.2,0.8v0.2h-4.6v-0.1  C181.2,246.8,181.2,246.3,181.4,245.9z"/>
<path class="st14" d="M239.4,248.2c-2.3,0-4.9,1-6.1,3.1c-1.3-2.1-3.8-3.1-6.1-3.1c-4.1,0-7.1,2.6-7.1,6.8c0,1.8,0.7,4.2,2.4,6.2  s2.7,3.1,5.9,5.2s4.9,2.5,4.9,2.5s1.7-0.4,4.9-2.5s4.2-3.2,5.9-5.2s2.4-4.4,2.4-6.2C246.5,250.7,243.4,248.2,239.4,248.2z"/>
<g>
	<path class="st17" d="M233.8,254.2v3.4h3.3v0.9h-3.3v3.4h-0.9v-3.4h-3.3v-0.9h3.3v-3.4L233.8,254.2L233.8,254.2z"/>
</g>
<path id="Portfolio_1_" class="st14" d="M295.4,251.3v-0.1c0-0.8-0.7-1.5-1.5-1.5h-5.7v-0.9c0-1.1-0.9-2-1.9-2h-6  c-1.1,0-1.9,0.9-1.9,2v0.9h-5.7c-0.8,0-1.5,0.7-1.5,1.5v16c0,0.8,0.7,1.5,1.5,1.5h21.4c0.8,0,1.5-0.7,1.5-1.5v-15.6  C295.4,251.6,295.4,251.4,295.4,251.3z"/>
<path class="st15" d="M282.2,257.8h1.9v1.4c0,0,0,0.1-0.1,0.1h-1.8c0,0-0.1,0-0.1-0.1v-1.4H282.2z"/>
<path class="st15" d="M280,257.8h1.7v1.4c0,0.3,0.3,0.6,0.6,0.6h1.8c0.3,0,0.6-0.3,0.6-0.6v-1.4h1.7v2.3c0,0.3-0.3,0.6-0.6,0.6h-5.2  c-0.3,0-0.6-0.3-0.6-0.6V257.8z"/>
<path class="st14" d="M272.1,250h5.9v1.7c0,0.2,0.2,0.4,0.4,0.4s0.4-0.2,0.4-0.4V250h8.7v1.7c0,0.2,0.2,0.4,0.4,0.4s0.4-0.2,0.4-0.4  V250h5.9c0.4,0,0.8,0.4,0.8,0.8v0.6c-0.3,3.5-3.3,6.2-6.9,6.2h-9.7c-3.8,0-7-3-7-6.7v-0.1C271.3,250.3,271.7,250,272.1,250z"/>
<path class="st14" d="M278.3,248.4c0-0.7,0.6-1.3,1.3-1.3h7.2c0.7,0,1.3,0.6,1.3,1.3v1.3h-9.7L278.3,248.4L278.3,248.4z"/>
<g>
	<path class="st14" d="M330.4,255.7L330.4,255.7L330.4,255.7z"/>
	<path class="st14" d="M342,267.4c-0.9-0.3-2.3-0.4-3.1-0.6c-0.5-0.1-1.2-0.4-1.5-0.7c-0.2-0.3-0.1-3-0.1-3s0.4-0.7,0.7-1.3   c0.2-0.6,0.5-2.3,0.5-2.3s0.5,0,0.7-0.9s0.5-1.3,0.4-2c0-0.7-0.4-0.7-0.4-0.7l0,0c0,0,0.4-1,0.4-3.1c0.1-2.5-1.8-4.9-5.4-4.9   s-5.4,2.4-5.4,4.9c0,2.1,0.4,3.1,0.4,3.1l0,0c0,0-0.4,0-0.4,0.7c0,0.7,0.3,1.1,0.4,2c0.2,0.9,0.7,0.9,0.7,0.9s0.3,1.7,0.5,2.3   c0.2,0.6,0.7,1.3,0.7,1.3s0.1,2.7-0.1,3s-1,0.6-1.5,0.7c-0.9,0.2-2.2,0.3-3.1,0.6c-0.9,0.3-3.8,1.5-3.8,3.8h11.6h11.6   C345.9,268.9,343,267.8,342,267.4z"/>
</g>
<g>
	<path class="st14" d="M386,247.1c-4.5,0-8.3,3.7-8.3,8.3c0,6.5,8.3,17.5,8.3,17.5s8.3-11,8.3-17.5   C394.4,250.8,390.5,247.1,386,247.1z M386,259.1c-2,0-3.7-1.6-3.7-3.7c0-2.1,1.6-3.7,3.7-3.7s3.7,1.6,3.7,3.7S388,259.1,386,259.1z   "/>
</g>
<path class="st14" d="M455.7,256.3h-18.6v-1.7c0-3-2.4-5.4-5.4-5.4s-5.4,2.4-5.4,5.4v7.9c0,3,2.4,5.4,5.4,5.4s5.4-2.4,5.4-5.4v-1.7  h10v3.1c0,0.3,0.2,0.5,0.5,0.5h2c0.3,0,0.5-0.2,0.5-0.5v-1.1h0.6v1.1c0,0.3,0.2,0.5,0.5,0.5h2c0.3,0,0.5-0.2,0.5-0.5v-3.1h2.1  c0.3,0,0.5-0.2,0.5-0.5v-3.6C456.2,256.5,456,256.3,455.7,256.3z M434.2,261.8c0,1.3-1,2.3-2.3,2.3s-2.3-1-2.3-2.3v-6.6  c0-1.3,1-2.3,2.3-2.3s2.3,1,2.3,2.3V261.8z"/>
<g id="Growth-success_1_">
	<path class="st15" d="M511.7,272.6h-24.2c-0.2,0-0.4-0.1-0.5-0.2s-0.2-0.3-0.2-0.5V251c0-0.2-0.2-0.4-0.4-0.4   c-0.2,0-0.4,0.2-0.4,0.4v20.9c0,0.4,0.2,0.8,0.5,1.1c0.3,0.3,0.7,0.5,1.1,0.5h24.2c0.2,0,0.4-0.2,0.4-0.4   C512.1,272.7,511.9,272.6,511.7,272.6z"/>
</g>
<path class="st14" d="M503.2,266.2l-4.3-3.7c-0.2-0.1-0.4-0.1-0.6,0l-11.7,9.5c0,0.3,0,0.5,0,0.8c0,0,21.8,0.1,22,0.1l0.1-17.7  L503.2,266.2z"/>
<g>
	<path class="st18" d="M845.2,68.5l4.2,0.7c0.1,0,0.1,0.1,0.1,0.1l0.6,4c0,0.1,0.1,0.1,0.1,0.1l4,0.6c0.1,0,0.1,0.1,0.1,0.1l0.7,4.3   c0,0.1,0.1,0.1,0.1,0.1l4.3,0.7c0.1,0,0.1,0.1,0.1,0.1l0.7,4.3c0,0.1,0.1,0.1,0.1,0.1l4.3,0.7c0.1,0,0.1,0.1,0.1,0.1l0.7,4.2   c0,0.1,0.2,0.2,0.3,0.1l35.2-35.2c0.1-0.1,0-0.2-0.1-0.3l-4.2-0.7c-0.1,0-0.1-0.1-0.1-0.1l-0.7-4.3c0-0.1-0.1-0.1-0.1-0.1l-4.3-0.7   c-0.1,0-0.1-0.1-0.1-0.1l-0.7-4.3c0-0.1-0.1-0.1-0.1-0.1l-4.3-0.7c-0.1,0-0.1-0.1-0.1-0.1l-0.6-4c0-0.1-0.1-0.1-0.1-0.1l-4-0.6   c-0.1,0-0.1-0.1-0.1-0.1l-0.7-4.2c0-0.1-0.2-0.2-0.3-0.1l-35.2,35.2C845,68.3,845,68.5,845.2,68.5z"/>
	<path class="st19" d="M891.4,47.6C891.3,47.6,891.3,47.5,891.4,47.6l-0.8-4.4c0-0.1-0.1-0.1-0.1-0.1l-4.3-0.7   c-0.1,0-0.1-0.1-0.1-0.1l-0.6-4c0-0.1-0.1-0.1-0.1-0.1l-4-0.6c-0.1,0-0.1-0.1-0.1-0.1l-0.7-4.2c0-0.1-0.2-0.2-0.3-0.1l-3.4,3.4   c0.1-0.1,0.2,0,0.3,0.1l0.7,4.2c0,0.1,0.1,0.1,0.1,0.1l4,0.6c0.1,0,0.1,0.1,0.1,0.1l0.6,4c0,0.1,0.1,0.1,0.1,0.1l4.3,0.7   c0.1,0,0.1,0.1,0.1,0.1l0.7,4.3c0,0.1,0.1,0.1,0.1,0.1l4.3,0.7c0.1,0,0.1,0.1,0.1,0.1l0.6,3.8c0.1,0.3-0.1,0.7-0.3,0.9l-27.9,27.9   c0,0,0,0,0,0.1l0.7,4.2c0,0.1,0.2,0.2,0.3,0.1l31.7-31.7l3.4-3.4c0.1-0.1,0-0.2-0.1-0.3l-4.2-0.7l0,0l0,0l-0.1-0.1l-0.7-4.3   c0-0.1-0.1-0.1-0.1-0.1L891.4,47.6z"/>
	<path class="st20" d="M845.1,68.3c-0.1,0.1,0,0.2,0.1,0.3l4.2,0.7c0.1,0,0.1,0.1,0.1,0.1l0.6,4c0,0.1,0.1,0.1,0.1,0.1l4,0.6   c0.1,0,0.1,0.1,0.1,0.1l0.7,4.3c0,0.1,0.1,0.1,0.1,0.1l4.3,0.7c0.1,0,0.1,0.1,0.1,0.1l0.7,4.3c0,0.1,0.1,0.1,0.1,0.1l4.3,0.7   c0.1,0,0.1,0.1,0.1,0.1l0.7,4.2c0,0.1,0.2,0.2,0.3,0.1l7-7L852,61.2L845.1,68.3z"/>
	<path class="st21" d="M864.8,84.6L864.8,84.6L864.8,84.6L864.8,84.6l0.7,4.3V89c0,0,0,0,0.1,0l0,0h0.1l0,0l7-7l-2.7-2.7L864.8,84.6   z"/>
	<path d="M888.7,57.9c1.3-1.3,1.7-2.8,0.2-4.3l-2.5-2.5c-1.5-1.5-3-1.1-4.3,0.2s-1.7,2.8-0.2,4.3l2.5,2.5   C885.9,59.6,887.4,59.1,888.7,57.9z M883.2,52.4c0.7-0.7,1.4-0.8,2-0.1l2.5,2.5c0.7,0.7,0.6,1.4-0.1,2c-0.7,0.7-1.3,0.7-2,0.1   l-2.5-2.5C882.5,53.7,882.5,53,883.2,52.4z"/>
	<path d="M876.5,45.6c-0.4-0.4-1-0.3-1.3,0.1c-0.2,0.2-0.3,0.5-0.2,0.8l6.1,18.4c0,0.1,0.1,0.2,0.2,0.3c0.3,0.3,0.9,0.4,1.3,0   c0.2-0.2,0.4-0.6,0.3-0.9L876.8,46C876.6,45.8,876.6,45.7,876.5,45.6z"/>
	<path d="M869.1,53c-1.3,1.3-1.7,2.8-0.2,4.3l2.5,2.5c1.5,1.5,3,1.1,4.3-0.2s1.7-2.8,0.2-4.3l-2.5-2.5   C871.9,51.3,870.3,51.7,869.1,53z M874.6,58.5c-0.7,0.7-1.3,0.7-2,0.1l-2.5-2.5c-0.7-0.7-0.6-1.4,0-2c0.7-0.7,1.4-0.8,2-0.1   l2.5,2.5C875.3,57.1,875.2,57.8,874.6,58.5z"/>
	<path d="M866,56.4c-0.3-0.3-0.8-0.3-1.1,0l-5.9,5.9c-0.3,0.3-0.3,0.8,0,1.1c0.2,0.2,0.4,0.2,0.6,0.2s0.4-0.1,0.6-0.2l5.9-5.9   C866.3,57.2,866.3,56.7,866,56.4z"/>
	<path d="M863.6,67.8c0.2,0,0.4-0.1,0.6-0.2l5.9-5.9c0.3-0.3,0.3-0.8,0-1.1s-0.8-0.3-1.1,0l-5.9,5.9c-0.3,0.3-0.3,0.8,0,1.1   C863.2,67.7,863.4,67.8,863.6,67.8z"/>
	<path d="M871.9,76.1c0.2,0,0.4-0.1,0.6-0.2l5.9-5.9c0.3-0.3,0.3-0.8,0-1.1c-0.3-0.3-0.8-0.3-1.1,0l-5.9,5.9c-0.3,0.3-0.3,0.8,0,1.1   C871.5,76,871.7,76.1,871.9,76.1z"/>
	<path d="M867.8,71.9c0.2,0,0.4-0.1,0.6-0.2l5.9-5.9c0.3-0.3,0.3-0.8,0-1.1c-0.3-0.3-0.8-0.3-1.1,0l-5.9,5.9c-0.3,0.3-0.3,0.8,0,1.1   C867.3,71.9,867.5,71.9,867.8,71.9z"/>
	<path d="M901.7,53.3c-0.1-0.3-0.4-0.6-0.8-0.6l-3.8-0.6l-0.6-3.8c-0.1-0.4-0.4-0.7-0.8-0.8l-3.8-0.6l-0.6-3.8   c-0.1-0.4-0.4-0.7-0.8-0.8l-3.8-0.6l-0.6-3.5c-0.1-0.4-0.4-0.7-0.8-0.8l-3.5-0.6l-0.6-3.8c-0.1-0.4-0.3-0.6-0.6-0.8   c-0.3-0.1-0.7,0-1,0.2l-5.4,5.4c-0.3,0.3-0.3,0.8,0,1.1s0.8,0.3,1.1,0l4.5-4.5l0.5,3c0.1,0.4,0.4,0.7,0.8,0.8l3.5,0.6l0.6,3.5   c0.1,0.4,0.4,0.7,0.8,0.8l3.8,0.6l0.6,3.8c0.1,0.4,0.4,0.7,0.8,0.8l3.8,0.6l0.6,3.8c0.1,0.4,0.4,0.7,0.8,0.8l3,0.5l-26.7,26.7   l-2.6-2.6c-0.3-0.3-0.8-0.3-1.1,0s-0.3,0.8,0,1.1l2.6,2.6l-5.5,5.5l-0.5-3c-0.1-0.4-0.4-0.7-0.8-0.8l-3.8-0.6l-0.6-3.8   c0-0.2-0.1-0.3-0.2-0.4c-0.1-0.2-0.4-0.3-0.6-0.4l-3.8-0.6l-0.6-3.8c-0.1-0.4-0.4-0.7-0.8-0.8l-3.5-0.6l-0.6-3.5   c-0.1-0.4-0.4-0.7-0.8-0.8l-3-0.5l5.5-5.5L864.8,75c0.3,0.3,0.8,0.3,1.1,0s0.3-0.8,0-1.1l-12.8-12.8l18.2-18.2   c0.3-0.3,0.3-0.8,0-1.1s-0.8-0.3-1.1,0l-25.7,25.7l0,0l0,0c-0.3,0.3-0.3,0.6-0.2,1c0,0.1,0.1,0.2,0.1,0.2c0.1,0.2,0.4,0.4,0.6,0.4   l3.8,0.6l0.6,3.5c0,0.1,0,0.1,0,0.1c0.1,0.3,0.4,0.6,0.7,0.6l3.5,0.6l0.6,3.8c0,0.1,0,0.1,0,0.1c0.1,0.3,0.4,0.6,0.7,0.6   c0,0,0,0,0.1,0l3.8,0.6l0.6,3.8c0.1,0.4,0.4,0.7,0.8,0.8l3.8,0.6l0.6,3.8c0.1,0.4,0.3,0.6,0.6,0.8c0.1,0,0.2,0,0.3,0   c0.2,0,0.5-0.1,0.7-0.3l0,0l0,0l35.2-35.2C901.7,54.1,901.8,53.7,901.7,53.3z"/>
</g>
<path class="st14" d="M134.6,248.8H117c-0.1,0-0.2,0.1-0.3,0.2l-0.9,6.3v11.2c0,0.4,0.4,0.8,0.8,0.8H135c0.4,0,0.8-0.4,0.8-0.8  v-11.2l-0.9-6.3C134.8,248.9,134.7,248.8,134.6,248.8z"/>
<path class="st14" d="M135,267.4h-18.4c-0.4,0-0.8-0.4-0.8-0.8v-11.2h19.9v11.2C135.8,267,135.4,267.4,135,267.4z"/>
<path class="st17" d="M128.5,261.1l-2.5-1.7c-0.1,0-0.2,0-0.3,0l-2.5,1.7c-0.2,0.1-0.4,0-0.4-0.1v-5.4h6v5.4  C128.9,261.1,128.7,261.2,128.5,261.1z"/>
<polygon class="st22" points="132.8,32 132.8,80.5 137.3,75.4 142.5,80.5 145.9,77.1 149.4,80.5 152.8,77.1 154.5,78.8 158,75.4   161.4,78.8 164,76.2 166.6,78.8 171,73.6 174.5,77.1 174.5,32 "/>
<path d="M132.1,81.7c-0.1,0-0.1,0-0.2,0c-0.2-0.1-0.3-0.3-0.3-0.4v-50c0-0.3,0.2-0.4,0.4-0.4h43c0.3,0,0.4,0.2,0.4,0.4v46.5  c0,0.3-0.2,0.5-0.7,0.5c-0.9,0-1.1-0.2-1.1-0.5V32.7l-40.2,0.1v46.5l3.4-4.5c0.2-0.2,0.4-0.2,0.6,0l4.9,5.7l3-4  c0.2-0.2,0.4-0.2,0.6,0l3.3,4l2.9-4c0.2-0.2,0.4-0.2,0.6,0l1.6,2.3l2.9-4c0.2-0.2,0.4-0.2,0.6,0l3.4,4l1.9-3.1  c0.2-0.2,0.4-0.2,0.6,0l2.6,3.1l4.4-5.7c0.2-0.2,0.4-0.2,0.6,0c0.2,0.2,0.2,1.4,0,1.6l-4.7,5.2c-0.2,0.2-0.4,0.2-0.6,0l-2.7-2.2  l-2,2.1c-0.2,0.2-0.4,0.2-0.6,0l-3.3-3l-2.9,3c-0.2,0.2-0.4,0.2-0.6,0l-1.6-1.3l-2.9,3c-0.2,0.2-0.4,0.2-0.6,0l-3.3-3l-3,3  c-0.2,0.2-0.4,0.2-0.6,0l-4.9-4.7L132.1,81.7C132.4,81.6,132.2,81.7,132.1,81.7z M149.4,64.4H146c-0.3,0-0.4-0.2-0.4-0.4  c0-0.3,0.2-0.4,0.4-0.4h3.4c0.3,0,0.4,0.2,0.4,0.4C149.8,64.3,149.6,64.4,149.4,64.4z M142.5,64.4h-1.7c-0.3,0-0.4-0.2-0.4-0.4  c0-0.3,0.2-0.4,0.4-0.4h1.7c0.3,0,0.4,0.2,0.4,0.4C142.9,64.3,142.7,64.4,142.5,64.4z M152.8,59.3h-6.9c-0.3,0-0.4-0.2-0.4-0.4  c0-0.3,0.2-0.4,0.4-0.4h6.9c0.3,0,0.4,0.2,0.4,0.4S153.1,59.3,152.8,59.3z M142.5,59.3h-1.7c-0.3,0-0.4-0.2-0.4-0.4  c0-0.3,0.2-0.4,0.4-0.4h1.7c0.3,0,0.4,0.2,0.4,0.4S142.7,59.3,142.5,59.3z M154.5,54.1h-8.6c-0.3,0-0.4-0.2-0.4-0.4  c0-0.3,0.2-0.4,0.4-0.4h8.6c0.3,0,0.4,0.2,0.4,0.4C155,53.9,154.8,54.1,154.5,54.1z M142.5,54.1h-1.7c-0.3,0-0.4-0.2-0.4-0.4  c0-0.3,0.2-0.4,0.4-0.4h1.7c0.3,0,0.4,0.2,0.4,0.4C142.9,53.9,142.7,54.1,142.5,54.1z M151.1,49h-5.2c-0.3,0-0.4-0.2-0.4-0.4  s0.2-0.4,0.4-0.4h5.2c0.3,0,0.4,0.2,0.4,0.4S151.3,49,151.1,49z M142.5,49h-1.7c-0.3,0-0.4-0.2-0.4-0.4s0.2-0.4,0.4-0.4h1.7  c0.3,0,0.4,0.2,0.4,0.4S142.7,49,142.5,49z M166.6,40.3h-3.4c-0.3,0-0.4-0.2-0.4-0.4s0.2-0.4,0.4-0.4h3.4c0.3,0,0.4,0.2,0.4,0.4  C167,40.2,166.8,40.3,166.6,40.3z M154.5,40.3h-13.8c-0.3,0-0.4-0.2-0.4-0.4s0.2-0.4,0.4-0.4h13.8c0.3,0,0.4,0.2,0.4,0.4  S154.8,40.3,154.5,40.3z M166.8,54.1h-3c0.5,0.4,0.9,1,1,1.8h2v0.9h-2c-0.2,1.8-1.7,3-4,3.1c1.4,1.5,3,3.3,4.5,5.2h-1.8  c-1.4-1.7-2.7-3.3-4.4-5.1v-1.1h1c2,0,3-0.8,3.1-2.1h-4.1v-0.9h4.1c-0.3-1-1.2-1.6-2.8-1.6h-1.3v-1.2h7.6L166.8,54.1L166.8,54.1z"/>
<g>
	<path class="st23" d="M237,36.6h29.8c1.8,0,3.2,1.4,3.2,3.2V78c0,1.8-1.4,3.2-3.2,3.2H237c-1.8,0-3.2-1.4-3.2-3.2V39.8   C233.8,38,235.3,36.6,237,36.6z"/>
	<path class="st24" d="M237.5,80.3c-2.4,0-2.9-1.2-2.9-2.9v-37c0-1.7,0.4-3.1,3-3.1h28.5c2.7,0,3,1.4,3,3.1   C232.5,40.4,237.5,80.3,237.5,80.3z"/>
	<g>
		<g>
			<path class="st25" d="M244,58.3c-0.3,0-0.6-0.1-0.8-0.3l-3.2-3.2c-0.4-0.4-0.4-1.1,0-1.5c0.2-0.2,0.5-0.3,0.8-0.3     s0.6,0.1,0.8,0.3l2.4,2.4l5.6-5.6c0.2-0.2,0.5-0.3,0.8-0.3s0.6,0.1,0.8,0.3c0.4,0.4,0.4,1.1,0,1.5l-6.4,6.4     C244.5,58.2,244.3,58.3,244,58.3L244,58.3z"/>
			<path d="M250.3,50.3c0.2,0,0.3,0.1,0.4,0.2c0.2,0.2,0.2,0.6,0,0.8l-6.4,6.4c-0.1,0.1-0.3,0.2-0.4,0.2c-0.2,0-0.3-0.1-0.4-0.2     l-3.2-3.2c-0.1-0.1-0.2-0.3-0.2-0.4s0.1-0.3,0.2-0.4c0.1-0.1,0.3-0.2,0.4-0.2s0.3,0.1,0.4,0.2l2.1,2.1l0.7,0.7l0.7-0.7l5.2-5.2     C250,50.4,250.2,50.3,250.3,50.3 M250.3,49.3c-0.4,0-0.8,0.2-1.1,0.5L244,55l-2.1-2.1c-0.3-0.3-0.7-0.5-1.1-0.5s-0.8,0.2-1.1,0.5     c-0.6,0.6-0.6,1.6,0,2.3l3.2,3.2c0.3,0.3,0.7,0.5,1.1,0.5l0,0l0,0c0.4,0,0.8-0.2,1.1-0.5l6.4-6.4c0.6-0.6,0.6-1.6,0-2.3     C251.1,49.5,250.7,49.3,250.3,49.3L250.3,49.3z"/>
		</g>
		<g>
			<path class="st25" d="M244,71.1c-0.3,0-0.6-0.1-0.8-0.3l-3.2-3.2c-0.4-0.4-0.4-1.1,0-1.5c0.2-0.2,0.5-0.3,0.8-0.3     s0.6,0.1,0.8,0.3l2.4,2.4l5.6-5.6c0.2-0.2,0.5-0.3,0.8-0.3s0.6,0.1,0.8,0.3c0.4,0.4,0.4,1.1,0,1.5l-6.4,6.4     C244.5,71,244.3,71.1,244,71.1L244,71.1z"/>
			<path d="M250.3,63c0.2,0,0.3,0.1,0.4,0.2c0.2,0.2,0.2,0.6,0,0.8l-6.4,6.4c-0.1,0.1-0.3,0.2-0.4,0.2c-0.2,0-0.3-0.1-0.4-0.2     l-3.2-3.2c-0.2-0.2-0.2-0.6,0-0.8c0.1-0.1,0.3-0.2,0.4-0.2s0.3,0.1,0.4,0.2l2.1,2.1l0.7,0.7l0.7-0.7l5.2-5.2     C250,63.1,250.2,63,250.3,63 M250.3,62c-0.4,0-0.8,0.2-1.1,0.5l-5.2,5.2l-2.1-2.1c-0.3-0.3-0.7-0.5-1.1-0.5s-0.8,0.2-1.1,0.5     c-0.6,0.6-0.6,1.6,0,2.3l3.2,3.2c0.3,0.3,0.7,0.5,1.1,0.5l0,0l0,0c0.4,0,0.8-0.2,1.1-0.5l6.4-6.4c0.6-0.6,0.6-1.6,0-2.3     C251.1,62.2,250.7,62,250.3,62L250.3,62z"/>
		</g>
	</g>
	<path class="st26" d="M263.1,55.7h-6.4c-0.9,0-1.6-0.7-1.6-1.6c0-0.9,0.7-1.6,1.6-1.6h6.4c0.9,0,1.6,0.7,1.6,1.6   S263.9,55.7,263.1,55.7z"/>
	<path class="st26" d="M263.1,68.4h-6.4c-0.9,0-1.6-0.7-1.6-1.6s0.7-1.6,1.6-1.6h6.4c0.9,0,1.6,0.7,1.6,1.6S263.9,68.4,263.1,68.4z"/>
	<path class="st27" d="M259.9,39.9H244c-0.9,0-1.6-0.7-1.6-1.6V35c0-0.9,0.7-1.6,1.6-1.6h3.5c0.9-2.5,3.6-3.8,6.1-2.9   c1.4,0.5,2.4,1.6,2.9,2.9h3.5c0.9,0,1.6,0.7,1.6,1.6v3.4C261.5,39.2,260.8,39.9,259.9,39.9z"/>
</g>
<g>
	<path class="st23" d="M755.3,78.7c-0.9,0-1.8-0.3-2.5-1l-16.2-16.2c-0.7-0.7-1-1.5-1-2.5s0.4-1.8,1-2.5L762,31.2   c1.4-1.4,3.6-1.4,4.9,0l16.2,16.2c0.7,0.7,1,1.5,1,2.5c0,0.9-0.4,1.8-1,2.5l-25.4,25.3C757.1,78.4,756.2,78.7,755.3,78.7z"/>
	<rect x="735.4" y="49" transform="matrix(0.7075 -0.7067 0.7067 0.7075 185.498 549.0889)" class="st28" width="41.3" height="3"/>
	<path class="st29" d="M772.5,81.2h-35.8c-1.9,0-3.5-1.6-3.5-3.5V54.8c0-1.9,1.6-3.5,3.5-3.5h35.8c1.9,0,3.5,1.6,3.5,3.5v22.9   C776,79.6,774.5,81.2,772.5,81.2z"/>
	<path d="M762.5,59.3h7.2c0.2,0,0.4,0.2,0.4,0.4v2.2c0,0.2-0.2,0.4-0.4,0.4h-7.2c-0.2,0-0.4-0.2-0.4-0.4v-2.2   C762.1,59.5,762.3,59.3,762.5,59.3z"/>
	<path class="st30" d="M738.6,59.3h20.9c0.3,0,0.5,0.2,0.5,0.4v2.2c0,0.2-0.2,0.4-0.5,0.4h-20.9c-0.3,0-0.5-0.2-0.5-0.4v-2.2   C738.1,59.5,738.3,59.3,738.6,59.3z"/>
	<path class="st31" d="M758.9,76c-1.3,0-2.5-0.5-3.5-1.5c-1.9-1.9-1.9-5.1,0-7c1.9-1.9,5.1-1.9,7,0l0,0c1.9,1.9,1.9,5.1,0,7   C761.4,75.5,760.2,76,758.9,76z"/>
	<path class="st32" d="M765.9,76c-1.3,0-2.5-0.5-3.5-1.5c-1.9-1.9-1.9-5.1,0-7c1.9-1.9,5.1-1.9,7,0l0,0c1.9,1.9,1.9,5.1,0,7   C768.4,75.5,767.1,76,765.9,76z"/>
</g>
<style xmlns="" type="text/css" id="igtranslator-color"/></svg>