<svg id="empty_cart" data-name="empty cart" xmlns="http://www.w3.org/2000/svg" width="142.781" height="137.906" viewBox="0 0 142.781 137.906">
  <metadata><?xpacket begin="﻿" id="W5M0MpCehiHzreSzNTczkc9d"?>
<x:xmpmeta xmlns:x="adobe:ns:meta/" x:xmptk="Adobe XMP Core 5.6-c138 79.159824, 2016/09/14-01:09:01        ">
   <rdf:RDF xmlns:rdf="http://www.w3.org/1999/02/22-rdf-syntax-ns#">
      <rdf:Description rdf:about=""/>
   </rdf:RDF>
</x:xmpmeta>
                                                                                                    
                                                                                                    
                                                                                                    
                                                                                                    
                                                                                                    
                                                                                                    
                                                                                                    
                                                                                                    
                                                                                                    
                                                                                                    
                                                                                                    
                                                                                                    
                                                                                                    
                                                                                                    
                                                                                                    
                                                                                                    
                                                                                                    
                                                                                                    
                                                                                                    
                                                                                                    
                           
<?xpacket end="w"?></metadata>
<defs>
    <style>
      .cls-1, .cls-3 {
        fill: #f19324;
      }

      .cls-1, .cls-2, .cls-3, .cls-4, .cls-5, .cls-6, .cls-7 {
        fill-rule: evenodd;
      }

      .cls-1, .cls-2 {
        opacity: 0.2;
      }

      .cls-4, .cls-8 {
        fill: #f5334a;
      }

      .cls-5 {
        fill: #eb8914;
      }

      .cls-6 {
        fill: #f8f8f8;
      }

      .cls-7 {
        fill: #fff;
      }
    </style>
  </defs>
  <path class="cls-1" d="M708.389,282.525s-20.071-8.5-23.547-9.915-24.749-5.487-36.559,10.534c-11.795,16-51.634,64.188-25.4,81.174,17.384,11.258,49.9,20.884,68.158,24.169,22.313,4.015,50.764-50.728,54.531-68.786,3.317-15.9-3.7-24.164-15.489-29.121S708.389,282.525,708.389,282.525Z" transform="translate(-603.594 -269)"/>
  <path class="cls-2" d="M672.08,402.044c31.381,0,56.82,1.087,56.82,2.428s-25.439,2.428-56.82,2.428-56.821-1.087-56.821-2.428S640.7,402.044,672.08,402.044Z" transform="translate(-603.594 -269)"/>
  <path id="Rounded_Rectangle_1_copy" data-name="Rounded Rectangle 1 copy" class="cls-3" d="M606.1,303.847h24.137a2.5,2.5,0,0,1,2.5,2.5v3.75a2.5,2.5,0,0,1-2.5,2.5H606.1a2.5,2.5,0,0,1-2.5-2.5v-3.75A2.5,2.5,0,0,1,606.1,303.847Z" transform="translate(-603.594 -269)"/>
  <path id="cart" class="cls-4" d="M663.319,372.647a11.776,11.776,0,1,1-11.992,11.77A11.882,11.882,0,0,1,663.319,372.647Zm30.732,0a11.776,11.776,0,1,1-11.988,11.77A11.885,11.885,0,0,1,694.051,372.647Zm32.276-52.481a3.193,3.193,0,0,0-2.556-1.265H640.536a3.18,3.18,0,0,1-2.854-1.755l-2.395-12.524a4.914,4.914,0,0,0-4.417-2.716H608.082a2.5,2.5,0,0,0-2.523,2.477v3.132a2.5,2.5,0,0,0,2.523,2.477h19.073a1.428,1.428,0,0,1,1.379,1.043l11.961,47.33a12.939,12.939,0,0,0,12.555,9.508h48.756a12.961,12.961,0,0,0,12.4-8.959l12.589-35.978A3.079,3.079,0,0,0,726.327,320.166Zm-19.1,36.992a3.613,3.613,0,0,1-3.476,2.513l-50.7.973a6.9,6.9,0,0,1-6.428-5.581l-5.8-26.117a2.223,2.223,0,0,1,.4-1.943,2.313,2.313,0,0,1,1.812-.873H714.22a2.3,2.3,0,0,1,1.84.914,2.21,2.21,0,0,1,.336,1.994Zm-79,30.51h16.622v3.182H628.227l2.482-1.632Zm3.314-6.639h10.424v3.317H631.541l2.482-1.8Z" transform="translate(-603.594 -269)"/>
  <path id="cart_copy_2" data-name="cart copy 2" class="cls-3" d="M709.927,360.452a3.65,3.65,0,0,1-3.476,2.713H658.716c-2.894,0-7.406-1.748-8.572-7.884l-4.7-22.132a2.546,2.546,0,0,1,.4-2.1,2.249,2.249,0,0,1,1.811-.942h69.275a2.244,2.244,0,0,1,1.84.987,2.545,2.545,0,0,1,.336,2.151Z" transform="translate(-603.594 -269)"/>
  <path id="cart_copy_4" data-name="cart copy 4" class="cls-5" d="M658.716,363.165c-2.894,0-7.406-1.748-8.572-7.884l-4.7-22.132a2.546,2.546,0,0,1,.4-2.1,2.249,2.249,0,0,1,1.811-.942h69.275a2.244,2.244,0,0,1,1.84.987,2.545,2.545,0,0,1,.336,2.151s-18.293,1.9-32.047,9.071C672.176,350.079,658.716,363.165,658.716,363.165Z" transform="translate(-603.594 -269)"/>
  <path id="Rounded_Rectangle_1" data-name="Rounded Rectangle 1" class="cls-6" d="M609.43,304.809h15.531a0.974,0.974,0,0,1,0,1.947H609.43A0.974,0.974,0,1,1,609.43,304.809Z" transform="translate(-603.594 -269)"/>
  <path id="cart_copy" data-name="cart copy" class="cls-3" d="M663.32,376.183a8.243,8.243,0,1,1-8.4,8.239A8.316,8.316,0,0,1,663.32,376.183Zm30.732,0a8.243,8.243,0,1,1-8.392,8.239A8.319,8.319,0,0,1,694.052,376.183Z" transform="translate(-603.594 -269)"/>
  <path id="cart_copy_3" data-name="cart copy 3" class="cls-7" d="M664.291,378.805a6.595,6.595,0,1,1-6.715,6.591A6.654,6.654,0,0,1,664.291,378.805Zm30.733,0a6.595,6.595,0,1,1-6.714,6.591A6.656,6.656,0,0,1,695.024,378.805Z" transform="translate(-603.594 -269)"/>
  <circle class="cls-8" cx="99.906" cy="32.5" r="4.5"/>
  <circle id="Ellipse_3_copy_2" data-name="Ellipse 3 copy 2" class="cls-8" cx="6.906" cy="61.5" r="4.5"/>
  <circle id="Ellipse_3_copy_3" data-name="Ellipse 3 copy 3" class="cls-8" cx="129.406" cy="98" r="3"/>
  <circle id="Ellipse_3_copy" data-name="Ellipse 3 copy" class="cls-8" cx="102.406" cy="2" r="2"/>
  <circle id="Ellipse_3_copy_5" data-name="Ellipse 3 copy 5" class="cls-8" cx="20.406" cy="72" r="2"/>
  <circle id="Ellipse_3_copy_4" data-name="Ellipse 3 copy 4" class="cls-8" cx="127.406" cy="20" r="2"/>
</svg>