<svg xmlns="http://www.w3.org/2000/svg" width="41.219" height="41.468" viewBox="0 0 41.219 41.468">
  <metadata><?xpacket begin="﻿" id="W5M0MpCehiHzreSzNTczkc9d"?>
<x:xmpmeta xmlns:x="adobe:ns:meta/" x:xmptk="Adobe XMP Core 5.6-c138 79.159824, 2016/09/14-01:09:01        ">
   <rdf:RDF xmlns:rdf="http://www.w3.org/1999/02/22-rdf-syntax-ns#">
      <rdf:Description rdf:about=""/>
   </rdf:RDF>
</x:xmpmeta>
                                                                                                    
                                                                                                    
                                                                                                    
                                                                                                    
                                                                                                    
                                                                                                    
                                                                                                    
                                                                                                    
                                                                                                    
                                                                                                    
                                                                                                    
                                                                                                    
                                                                                                    
                                                                                                    
                                                                                                    
                                                                                                    
                                                                                                    
                                                                                                    
                                                                                                    
                                                                                                    
                           
<?xpacket end="w"?></metadata>
<defs>
    <style>
      .cls-1 {
        fill: #d9232d;
        fill-rule: evenodd;
      }
    </style>
  </defs>
  <path id="icon_secure_payment" class="cls-1" d="M834.207,242.747h1.339a1.151,1.151,0,0,1,0,2.3h-1.339A1.151,1.151,0,0,1,834.207,242.747Zm-7.157,0h1.339a1.151,1.151,0,0,1,0,2.3H827.05A1.151,1.151,0,0,1,827.05,242.747Zm-7.157,0h1.339a1.151,1.151,0,0,1,0,2.3h-1.339A1.151,1.151,0,0,1,819.893,242.747Zm-7.157,0h1.339a1.151,1.151,0,0,1,0,2.3h-1.339A1.151,1.151,0,0,1,812.736,242.747ZM801.83,222.486l9.989-10.04,3.23-3.249a3.428,3.428,0,0,1,4.86,0L834.6,223.948h4.057a3.449,3.449,0,0,1,3.432,3.453v18.8a3.449,3.449,0,0,1-3.44,3.452H809.628a3.449,3.449,0,0,1-3.44-3.452V231.759l-4.366-4.383A3.646,3.646,0,0,1,801.83,222.486Zm16.464-11.664a1.146,1.146,0,0,0-1.623,0l-2.418,2.44,10.63,10.686h6.468Zm-8.666,36.529h29.018a1.147,1.147,0,0,0,1.144-1.151V233.147H808.484V246.2h0A1.147,1.147,0,0,0,809.628,247.351Zm-1.144-16.506H839.79V227.4a1.146,1.146,0,0,0-1.144-1.151H809.628a1.146,1.146,0,0,0-1.144,1.151v3.444Zm-5.031-5.1L806.2,228.5v-1.1a3.45,3.45,0,0,1,3.44-3.453h12.01l-9.016-9.061-9.185,9.232A1.136,1.136,0,0,0,803.453,225.744Z" transform="translate(-800.875 -208.188)"/>
</svg>
