<svg xmlns="http://www.w3.org/2000/svg" width="35.844" height="36.032" viewBox="0 0 35.844 36.032">
  <metadata><?xpacket begin="﻿" id="W5M0MpCehiHzreSzNTczkc9d"?>
<x:xmpmeta xmlns:x="adobe:ns:meta/" x:xmptk="Adobe XMP Core 5.6-c138 79.159824, 2016/09/14-01:09:01        ">
   <rdf:RDF xmlns:rdf="http://www.w3.org/1999/02/22-rdf-syntax-ns#">
      <rdf:Description rdf:about=""/>
   </rdf:RDF>
</x:xmpmeta>
                                                                                                    
                                                                                                    
                                                                                                    
                                                                                                    
                                                                                                    
                                                                                                    
                                                                                                    
                                                                                                    
                                                                                                    
                                                                                                    
                                                                                                    
                                                                                                    
                                                                                                    
                                                                                                    
                                                                                                    
                                                                                                    
                                                                                                    
                                                                                                    
                                                                                                    
                                                                                                    
                           
<?xpacket end="w"?></metadata>
<defs>
    <style>
      .cls-1 {
        fill: #d9232d;
        fill-rule: evenodd;
      }
    </style>
  </defs>
  <path id="icon_great_value" class="cls-1" d="M82.227,233.464v-3.351a3.172,3.172,0,0,0-2.1-2.987v-3.351a3.163,3.163,0,0,0-3.15-3.169H73.826v-3.169a3.163,3.163,0,0,0-3.151-3.169h-12.6a3.163,3.163,0,0,0-3.151,3.169v3.169h-2.24a4.218,4.218,0,0,0-4.2,4.225v22.324a3.163,3.163,0,0,0,3.151,3.169H79.077a3.163,3.163,0,0,0,3.15-3.169V243.8a3.157,3.157,0,0,0,1.194-.793,3.268,3.268,0,0,0,.906-2.259v-4.3A3.172,3.172,0,0,0,82.227,233.464Zm-8.4-10.746h3.151a1.055,1.055,0,0,1,1.05,1.057v3.169h-4.2v-4.226Zm-8.4-6.338h2.1v1.057a1.05,1.05,0,1,0,2.1,0V216.38h1.05a1.055,1.055,0,0,1,1.05,1.057v9.507h-6.3V216.38Zm-4.2,0h2.1v10.564h-2.1V216.38Zm-4.2,1.057a1.055,1.055,0,0,1,1.05-1.057h1.05v10.564h-2.1v-9.507Zm-4.341,5.281h2.24v4.226h-2.24A2.113,2.113,0,0,1,52.682,222.718Zm-2.1,5.77a4.153,4.153,0,0,0,2.1.569H79.077a1.054,1.054,0,0,1,1.05,1.056v3.169h-3.15a5.167,5.167,0,0,0-1.05.108v-1.164a1.053,1.053,0,0,0-1.05-1.057H50.582v-2.681Zm0,4.794H73.826v1.056c0,0.008,0,.016,0,0.024a5.392,5.392,0,0,0-.572,8.034,5.49,5.49,0,0,0,.572.51c0,0.008,0,.016,0,0.024v1.057H50.582v-10.7Zm29.545,13.873a1.055,1.055,0,0,1-1.05,1.057H51.632a1.055,1.055,0,0,1-1.05-1.057V246.1H74.876a1.053,1.053,0,0,0,1.05-1.056v-1.165a5.167,5.167,0,0,0,1.05.109h3.15v3.168Zm2.1-6.408a1.119,1.119,0,0,1-1.05,1.127h-4.2a3.241,3.241,0,0,1,0-6.479h4.2a1.054,1.054,0,0,1,1.05,1.056v4.3Zm-5.24-3.169a1.067,1.067,0,0,0,0,2.134A1.067,1.067,0,0,0,76.987,237.578Zm-8.412-16.972a1.053,1.053,0,0,0-1.05,1.056v2.113a1.05,1.05,0,1,0,2.1,0v-2.113A1.053,1.053,0,0,0,68.575,220.606Z" transform="translate(-48.469 -214.281)"/>
</svg>
