<svg xmlns="http://www.w3.org/2000/svg" width="39.44" height="34.282" viewBox="0 0 39.44 34.282">
  <metadata><?xpacket begin="﻿" id="W5M0MpCehiHzreSzNTczkc9d"?>
<x:xmpmeta xmlns:x="adobe:ns:meta/" x:xmptk="Adobe XMP Core 5.6-c138 79.159824, 2016/09/14-01:09:01        ">
   <rdf:RDF xmlns:rdf="http://www.w3.org/1999/02/22-rdf-syntax-ns#">
      <rdf:Description rdf:about=""/>
   </rdf:RDF>
</x:xmpmeta>
                                                                                                    
                                                                                                    
                                                                                                    
                                                                                                    
                                                                                                    
                                                                                                    
                                                                                                    
                                                                                                    
                                                                                                    
                                                                                                    
                                                                                                    
                                                                                                    
                                                                                                    
                                                                                                    
                                                                                                    
                                                                                                    
                                                                                                    
                                                                                                    
                                                                                                    
                                                                                                    
                           
<?xpacket end="w"?></metadata>
<defs>
    <style>
      .cls-1 {
        fill: #d9232d;
        fill-rule: evenodd;
      }
    </style>
  </defs>
  <path id="icon_365_days" class="cls-1" d="M1566.63,227.879h-0.66a15.731,15.731,0,0,0-30.35,0h-0.67a3.868,3.868,0,0,0-3.87,3.865v4.341a3.868,3.868,0,0,0,3.87,3.864h0.48a9.929,9.929,0,0,0,9.84,8.642h0.93a3.218,3.218,0,0,0,2.96,1.957h3.26a3.212,3.212,0,1,0,0-6.424h-3.26a3.218,3.218,0,0,0-2.96,1.957h-0.93a7.4,7.4,0,0,1-7.4-7.387v-9.419a13.207,13.207,0,0,1,25.84-.005v9.423a1.261,1.261,0,0,0,1.26,1.255h1.66a3.877,3.877,0,0,0,3.88-3.865v-4.341A3.876,3.876,0,0,0,1566.63,227.879Zm-17.47,18.756h3.26a0.7,0.7,0,1,1,0,1.4h-3.26A0.7,0.7,0,0,1,1549.16,246.635Z" transform="translate(-1531.06 -216.281)"/>
</svg>
