<svg xmlns="http://www.w3.org/2000/svg" width="32.25" height="36.032" viewBox="0 0 32.25 36.032">
  <metadata><?xpacket begin="﻿" id="W5M0MpCehiHzreSzNTczkc9d"?>
<x:xmpmeta xmlns:x="adobe:ns:meta/" x:xmptk="Adobe XMP Core 5.6-c138 79.159824, 2016/09/14-01:09:01        ">
   <rdf:RDF xmlns:rdf="http://www.w3.org/1999/02/22-rdf-syntax-ns#">
      <rdf:Description rdf:about=""/>
   </rdf:RDF>
</x:xmpmeta>
                                                                                                    
                                                                                                    
                                                                                                    
                                                                                                    
                                                                                                    
                                                                                                    
                                                                                                    
                                                                                                    
                                                                                                    
                                                                                                    
                                                                                                    
                                                                                                    
                                                                                                    
                                                                                                    
                                                                                                    
                                                                                                    
                                                                                                    
                                                                                                    
                                                                                                    
                                                                                                    
                           
<?xpacket end="w"?></metadata>
<defs>
    <style>
      .cls-1 {
        fill: #d9232d;
        fill-rule: evenodd;
      }
    </style>
  </defs>
  <path id="icon_buyer_proctection" class="cls-1" d="M1197.59,222.271l-0.04-1.129-1.1-.116a28.589,28.589,0,0,1-14.16-6.045l-0.82-.713-0.82.712a28.572,28.572,0,0,1-14.16,6.046l-1.09.116-0.05,1.129a35.073,35.073,0,0,0,1.62,10.851,30.3,30.3,0,0,0,4.58,9.166,25.635,25.635,0,0,0,9.37,7.767l0.55,0.269,0.55-.268a25.761,25.761,0,0,0,9.38-7.768,30.056,30.056,0,0,0,4.57-9.166A35.073,35.073,0,0,0,1197.59,222.271Zm-16.12,25.148a23.086,23.086,0,0,1-7.87-6.681,27.455,27.455,0,0,1-4.18-8.326,34.3,34.3,0,0,1-1.52-8.933,27.45,27.45,0,0,0,5.08-1.292,32.163,32.163,0,0,0,4.9-2.226,32.559,32.559,0,0,0,3.59-2.33,32.559,32.559,0,0,0,3.59,2.33,32.163,32.163,0,0,0,4.9,2.226,27.652,27.652,0,0,0,5.08,1.292,34.314,34.314,0,0,1-1.49,8.851,27.66,27.66,0,0,1-4.17,8.368A23.2,23.2,0,0,1,1181.47,247.419Zm6.94-21.07-1.78,1.824-6.62,6.8-3.35-3.444-0.46-.469-0.9.924h0l-0.9.925,5.61,5.762,10.2-10.47Z" transform="translate(-1165.34 -214.281)"/>
</svg>
