<svg xmlns="http://www.w3.org/2000/svg" width="48.406" height="39.656" viewBox="0 0 48.406 39.656">
  <metadata><?xpacket begin="﻿" id="W5M0MpCehiHzreSzNTczkc9d"?>
<x:xmpmeta xmlns:x="adobe:ns:meta/" x:xmptk="Adobe XMP Core 5.6-c138 79.159824, 2016/09/14-01:09:01        ">
   <rdf:RDF xmlns:rdf="http://www.w3.org/1999/02/22-rdf-syntax-ns#">
      <rdf:Description rdf:about=""/>
   </rdf:RDF>
</x:xmpmeta>
                                                                                                    
                                                                                                    
                                                                                                    
                                                                                                    
                                                                                                    
                                                                                                    
                                                                                                    
                                                                                                    
                                                                                                    
                                                                                                    
                                                                                                    
                                                                                                    
                                                                                                    
                                                                                                    
                                                                                                    
                                                                                                    
                                                                                                    
                                                                                                    
                                                                                                    
                                                                                                    
                           
<?xpacket end="w"?></metadata>
<defs>
    <style>
      .cls-1 {
        fill: #d9232d;
        fill-rule: evenodd;
      }
    </style>
  </defs>
  <path id="icon_nationwide_delivery" class="cls-1" d="M479.671,226.16v-1.076a3,3,0,0,0-3.025-2.974H466.564v-4.959a1,1,0,0,0-1.008-.991h-3.025v-2.975a1,1,0,0,0-1.008-.991h-13.7l-1.722-1.694a1.02,1.02,0,0,0-1.425,0l-5.754,5.66h-1.6a1,1,0,0,0-1.009.991v27.765a1,1,0,0,0,1.009.992h4.134a4.907,4.907,0,0,0,.909,1.983h-2.019a0.992,0.992,0,1,0,0,1.983h6.056a5.031,5.031,0,0,0,4.933-3.966h18.35a4.909,4.909,0,0,0,.91,1.983h-2.019a0.992,0.992,0,1,0,0,1.983h6.056a5.029,5.029,0,0,0,4.932-3.966H483.7a1,1,0,0,0,1.008-.992V232.025A5.989,5.989,0,0,0,479.671,226.16Zm-19.156-11.983v1.983h-8.656l-2.016-1.983h10.672ZM445.392,212.6l1.3,1.282h0l2.311,2.273h-7.231Zm1.008,35.287a2.975,2.975,0,1,1,3.025-2.975A3,3,0,0,1,446.4,247.891Zm18.147-24.79v16.857h-6.856a0.992,0.992,0,1,0,0,1.984h6.856v1.983H451.34a5.059,5.059,0,0,0-9.879,0h-3.126V228.059h4.032a0.992,0.992,0,1,0,0-1.983h-4.032v-1.983h12.1a0.992,0.992,0,1,0,0-1.983h-12.1v-3.967h26.212V223.1h0Zm5.143,20.824h-3.126v-1.984H470.6A4.9,4.9,0,0,0,469.69,243.925Zm7.964,0.994a3.025,3.025,0,1,1-3.032-2.978h0.01a3,3,0,0,1,3.022,2.972v0.006Zm5.041-.994h-3.126a5.029,5.029,0,0,0-4.939-3.967h-8.066V224.093h10.082a1,1,0,0,1,1.008.991v0.992H470.6a1,1,0,0,0-1.008.992v8.924a1,1,0,0,0,1.008.992h12.1v6.941Zm-9.073-15.866V235h-2.017v-6.941h2.017ZM482.7,235h-7.057v-6.941h3.024a4,4,0,0,1,4.033,3.966V235h0Zm-28.948,6.941h0.629a0.992,0.992,0,1,0,0-1.983h-0.629A0.992,0.992,0,1,0,453.747,241.941Zm0-17.848h0.629a0.992,0.992,0,1,0,0-1.983h-0.629A0.992,0.992,0,1,0,453.747,224.093Z" transform="translate(-436.313 -210.219)"/>
</svg>
