<svg id="icon_login_signup_active" xmlns="http://www.w3.org/2000/svg" width="26" height="26" viewBox="0 0 26 26">
  <metadata><?xpacket begin="﻿" id="W5M0MpCehiHzreSzNTczkc9d"?>
<x:xmpmeta xmlns:x="adobe:ns:meta/" x:xmptk="Adobe XMP Core 5.6-c138 79.159824, 2016/09/14-01:09:01        ">
   <rdf:RDF xmlns:rdf="http://www.w3.org/1999/02/22-rdf-syntax-ns#">
      <rdf:Description rdf:about=""/>
   </rdf:RDF>
</x:xmpmeta>
                                                                                                    
                                                                                                    
                                                                                                    
                                                                                                    
                                                                                                    
                                                                                                    
                                                                                                    
                                                                                                    
                                                                                                    
                                                                                                    
                                                                                                    
                                                                                                    
                                                                                                    
                                                                                                    
                                                                                                    
                                                                                                    
                                                                                                    
                                                                                                    
                                                                                                    
                                                                                                    
                           
<?xpacket end="w"?></metadata>
<defs>
    <style>
      .cls-1 {
        fill: #202020;
      }

      .cls-1, .cls-2 {
        fill-rule: evenodd;
      }

      .cls-2 {
        fill: #44b003;
      }
    </style>
  </defs>
  <path id="icon_login_signup_copy_2" data-name="icon_login_signup copy 2" class="cls-1" d="M675.237,57.237c0-.085.013-0.168,0.013-0.253a11.3,11.3,0,1,0-9.2,11.068l1.456,1.456a13.131,13.131,0,1,1,9.345-10.655Zm-15.5-4.483a4.277,4.277,0,1,1,4.277,4.277A4.276,4.276,0,0,1,659.735,52.754Zm10.153,8.134L669,60l-6,5,1.69,1.69a7.934,7.934,0,0,1-.923.044c-3.57-.066-7.064-3.042-7.064-3.042A7.524,7.524,0,0,1,669.888,60.888Z" transform="translate(-651 -44)"/>
  <path id="Forma_1" data-name="Forma 1" class="cls-2" d="M676.683,62.069l-0.852-.927a0.572,0.572,0,0,0-.853,0l-4.113,4.478-1.843-2.011a0.572,0.572,0,0,0-.853,0l-0.852.927a0.7,0.7,0,0,0,0,.927l2.269,2.468,0.853,0.927a0.571,0.571,0,0,0,.852,0l0.853-.927L676.683,63A0.7,0.7,0,0,0,676.683,62.069Z" transform="translate(-651 -44)"/>
<style xmlns="" type="text/css" id="igtranslator-color"/></svg>