<?xml version="1.0" encoding="utf-8"?>
<!-- Generator: Adobe Illustrator 20.1.0, SVG Export Plug-In . SVG Version: 6.00 Build 0)  -->
<svg version="1.1" id="Layer_1" xmlns="http://www.w3.org/2000/svg" xmlns:xlink="http://www.w3.org/1999/xlink" x="0px" y="0px"
	 width="255.1px" height="100.8px" viewBox="0 0 255.1 100.8" style="enable-background:new 0 0 255.1 100.8;" xml:space="preserve"
	>
<style type="text/css">
	.st0{enable-background:new    ;}
	.st1{fill:#D9232D;}
</style>
<symbol  id="Symbol_1" viewBox="-240.5 -82.8 481 165.5">
	<g id="Layer_3_2_">
		<g>
			<g class="st0">
				<path class="st1" d="M-114.3-35.3h-22c1.2,14,1.7,27.6,1.7,40.8c0,9.9-1.3,16.4-3.8,19.4s-6.6,4.6-12.2,4.6
					c-4.5,0-9.2-1.6-14.2-4.9c-0.2-6.9-0.3-13.1-0.3-18.6c0-9.2,0.2-23,0.5-41.3h-22.2c1.2,15.2,1.8,29.9,1.8,44.2
					c0,7.4-1,12.7-3.1,15.9s-6.4,4.7-12.9,4.7c-6,0-11-2-15-6.1c0.3-21.9,0.4-41.5,0.4-58.8h-22.3c1,17.3,1.5,30.9,1.5,40.8
					c0,12.9-1.4,25.4-4.1,37.4l21.2,2.3l1.4-8.8h1.3c7.2,6.5,15.3,9.8,24.3,9.8c11.3,0,19.2-3.3,23.8-9.8h1.3
					c8.2,6.5,16.3,9.8,24.3,9.8c9.4,0,16.5-2,21.3-6.1s7.2-11.4,7.2-22.1c0-1.1-0.1-3.1-0.2-6c-0.1-3-0.2-5-0.2-6
					C-114.6-3.2-114.5-17-114.3-35.3z"/>
			</g>
			<g class="st0">
				<path class="st1" d="M-25.8,5.9c0-13.9-4.3-24.8-12.9-32.7S-57.4-38.6-69-38.6c-11.1,0-20.6,3.6-28.5,10.7
					c-7.9,7.2-11.9,17.3-11.9,30.3c0,14,4.3,25,12.9,32.9s18.8,11.9,30.4,11.9c11,0,20.5-3.6,28.3-10.8C-29.7,29.1-25.8,19-25.8,5.9
					z M-47.5,3.4c0,8-1.9,14.8-5.6,20.2c-3.8,5.5-8.7,8.2-14.7,8.2c-5.9,0-10.6-2.5-14.3-7.6c-3.7-5.1-5.5-11.5-5.5-19.1
					c0-8,1.9-14.8,5.6-20.2c3.8-5.5,8.7-8.2,14.7-8.2c5.9,0,10.6,2.5,14.3,7.6C-49.3-10.6-47.5-4.2-47.5,3.4z"/>
			</g>
			<g class="st0">
				<path class="st1" d="M67.5,55l-1.8-15.4c-8.6,0-14-1.2-16.2-3.7v-1.1c3.3-4.2,4.9-8.8,4.9-13.9c0-7.9-2.9-14.7-8.8-20.3
					C39.8-5,31.1-7.8,19.5-7.8c-5.6,0-10.3,0.4-13.9,1.3c-2.9-1.3-4.4-3.1-4.4-5.2c0-3.4,1.8-5.7,5.3-7.1s11.7-2,24.5-2
					c22.2,0,33.3-7.6,33.3-22.7c0-10.6-4.6-19.1-13.9-25.3c-9.2-6.3-20.5-9.4-33.7-9.4c-25.9,0-38.8,8.1-38.8,24.4
					c0,5,1.5,9.3,4.4,12.8s6.3,5.7,10.1,6.4v1.2c-4.6,2.9-7,7.4-7,13.4c0,6.1,3.2,11.2,9.5,15.3v1.2c-9,4.5-13.4,11.5-13.4,21
					c0,8.1,3.1,14.9,9.3,20.4s15.7,8.2,28.6,8.2c8.8,0,15.9-1.7,21.4-5H42c1.6,10.5,7,15.7,16.1,15.7C61.6,56.9,64.8,56.2,67.5,55z
					 M43.8-49.7c0,4.1-1.6,7.1-4.7,8.9C36-39,30.6-38.1,23-38.1c-6.2,0-12.5,0.3-18.8,0.8c-4.9-2.8-7.3-7.1-7.3-12.8
					c0-10.6,7.1-15.9,21.2-15.9c7.9,0,14.2,1.5,18.8,4.5C41.5-58.5,43.8-54.5,43.8-49.7z M34,18.6c0,5-1.6,8.8-4.8,11.4
					s-6.9,3.9-11,3.9c-4.2,0-7.8-1.3-10.9-3.8C4.1,27.6,2.6,23.9,2.6,19s1.6-8.7,4.8-11.2S14.3,4,18.6,4c4,0,7.6,1.2,10.7,3.7
					C32.5,10.2,34,13.8,34,18.6z"/>
			</g>
			<g class="st0">
				<path class="st1" d="M102.6-35.3H79.9c0.8,19,1.2,39.5,1.2,61.7c0,21.6-0.9,39.9-2.6,55l24,1.3c-0.8-15.7-1.2-34.4-1.2-56.4
					C101.4,4.1,101.8-16.5,102.6-35.3z"/>
			</g>
			<g class="st0">
				<path class="st1" d="M141.2-35.3h-22.3c0.8,11.5,1.2,24.6,1.2,39.4c0,14.7-0.9,27.6-2.8,38.7l23.9,2.4
					c-0.7-10.7-1.1-24.4-1.1-41.1C140-10.1,140.4-23.3,141.2-35.3z M145,68.6c0-3.8-1.3-7.1-3.9-9.9c-2.6-2.8-6.2-4.2-10.7-4.2
					c-3.9,0-6.9,1.2-9.1,3.7c-2.2,2.4-3.3,5.4-3.3,8.8c0,3.8,1.3,7,3.9,9.8c2.6,2.8,6.2,4.2,10.8,4.2c3.9,0,7-1.2,9.1-3.6
					C143.9,74.9,145,72.1,145,68.6z"/>
			</g>
		</g>
		<g>
			<g>
				<path class="st1" d="M212.1,42.7h22.2c0-1-3.7-6.6-11.1-16.6S210.9,10,208.6,7.9V6.6c3.1-3.5,8.7-11,16.6-22.5
					c7-10.3,11.3-17.3,12.3-19.9l-25.8-0.4c-0.6,2.2-3.2,7.8-7.1,15c-4.3,8-7.6,13.6-9.9,16.9h-1.1c-1.8-2.5-4.8-8-9-16.6
					c-4.1-8.6-6.2-13.7-6.2-15.2h-23.1c0,1.3,4,7.8,12.1,19.4c8,11.6,13.5,19.1,16.7,22.2v1.2c-2.7,2.9-7.5,9.1-14.4,18.7
					c-7.4,10.2-11.1,16-11.1,17.2h25.8c0-1.4,1.9-5.7,5.6-12.8c3.6-6.9,6.4-11.7,8.3-14.3h1c1.7,2.2,4.3,6.8,7.7,14.1
					C210.4,36.8,212.1,41.2,212.1,42.7z"/>
			</g>
			<g>
				<path class="st1" d="M234.9-50.5c3.7-3.7,5.6-8.2,5.6-13.4s-1.9-9.7-5.6-13.3c-3.7-3.7-8.1-5.6-13.3-5.6
					c-5.2,0-9.7,1.9-13.4,5.6c-3.7,3.7-5.5,8.1-5.5,13.3s1.8,9.7,5.5,13.4c3.7,3.7,8.2,5.5,13.4,5.5C226.8-45,231.2-46.8,234.9-50.5
					z"/>
				<path class="st1" d="M234.9-50.5c3.7-3.7,5.6-8.2,5.6-13.4s-1.9-9.7-5.6-13.3c-3.7-3.7-8.1-5.6-13.3-5.6
					c-5.2,0-9.7,1.9-13.4,5.6c-3.7,3.7-5.5,8.1-5.5,13.3s1.8,9.7,5.5,13.4c3.7,3.7,8.2,5.5,13.4,5.5C226.8-45,231.2-46.8,234.9-50.5
					z"/>
			</g>
			<g>
				<path class="st1" d="M183.4-50.5c3.7-3.7,5.6-8.2,5.6-13.4s-1.9-9.7-5.6-13.3c-3.7-3.7-8.1-5.6-13.3-5.6
					c-5.2,0-9.7,1.9-13.4,5.6c-3.7,3.7-5.5,8.1-5.5,13.3s1.8,9.7,5.5,13.4c3.7,3.7,8.2,5.5,13.4,5.5C175.3-45,179.7-46.8,183.4-50.5
					z"/>
				<path class="st1" d="M183.4-50.5c3.7-3.7,5.6-8.2,5.6-13.4s-1.9-9.7-5.6-13.3c-3.7-3.7-8.1-5.6-13.3-5.6
					c-5.2,0-9.7,1.9-13.4,5.6c-3.7,3.7-5.5,8.1-5.5,13.3s1.8,9.7,5.5,13.4c3.7,3.7,8.2,5.5,13.4,5.5C175.3-45,179.7-46.8,183.4-50.5
					z"/>
			</g>
			<g>
				<path class="st1" d="M99.2-61.3c11.7,2.1,11.7,3.8,0,5.2l1,0.2h31L132-56c0.9-1.8,0.9-3.6,0-5.4c-0.2,0-0.5,0-0.8,0h-31
					C99.8-61.5,99.5-61.4,99.2-61.3z"/>
			</g>
			<g>
				<path class="st1" d="M95.1-73.6c-0.2,0-0.4,0-0.5,0c11.3,1.9,11.3,3.4,0,4.5h0.5h46.5c0.3,0,0.6,0,0.8-0.1
					c0.9-1.3,0.9-2.8,0-4.3c-0.2-0.1-0.5-0.1-0.8-0.1H95.1z"/>
			</g>
		</g>
	</g>
</symbol>
<use xlink:href="#Symbol_1"  width="481" height="165.5" id="XMLID_1_" x="-240.5" y="-82.8" transform="matrix(0.4731 0 0 -0.4731 125.1936 50.8822)" style="overflow:visible;"/>
</svg>
